<?xml version="1.0" standalone="no"?><!DOCTYPE svg PUBLIC "-//W3C//DTD SVG 1.1//EN" "http://www.w3.org/Graphics/SVG/1.1/DTD/svg11.dtd"><svg t="1713166605895" class="icon" viewBox="0 0 1024 1024" version="1.1" xmlns="http://www.w3.org/2000/svg" p-id="13553" xmlns:xlink="http://www.w3.org/1999/xlink" width="200" height="200"><path d="M512 784.516129C297.637161 784.516129 123.870968 610.749935 123.870968 396.387097S297.637161 8.258065 512 8.258065 900.129032 182.024258 900.129032 396.387097 726.362839 784.516129 512 784.516129z m0-49.548387c186.995613 0 338.580645-151.585032 338.580645-338.580645S698.995613 57.806452 512 57.806452 173.419355 209.391484 173.419355 396.387097 325.004387 734.967742 512 734.967742z" fill="#0069F6" p-id="13554"></path><path d="M360.002065 602.392774a24.774194 24.774194 0 0 1 29.448258-39.853419A205.394581 205.394581 0 0 0 512 602.83871c45.402839 0 88.526452-14.666323 124.019613-41.38942a24.774194 24.774194 0 0 1 29.795097 39.589162A254.942968 254.942968 0 0 1 512 652.387097a254.926452 254.926452 0 0 1-151.997935-49.994323z" fill="#5ED7BC" p-id="13555"></path><path d="M768 990.967742a24.774194 24.774194 0 0 1-49.548387 0c0-114.027355-92.424258-206.451613-206.451613-206.451613S305.548387 876.940387 305.548387 990.967742a24.774194 24.774194 0 0 1-49.548387 0c0-141.378065 114.621935-256 256-256 141.378065 0 256 114.621935 256 256z" fill="#0069F6" p-id="13556"></path></svg>