<?xml version="1.0" standalone="no"?><!DOCTYPE svg PUBLIC "-//W3C//DTD SVG 1.1//EN" "http://www.w3.org/Graphics/SVG/1.1/DTD/svg11.dtd"><svg height="244" node-id="1" sillyvg="true" template-height="244" template-width="251" version="1.1" viewBox="0 0 251 244" width="251" xmlns="http://www.w3.org/2000/svg" xmlns:xlink="http://www.w3.org/1999/xlink"><defs node-id="224"></defs><g node-id="792"><g node-id="795"><path d="M 250.98 109.72 C 250.98 69.01 217.91 36.02 177.11 36.02 C 176.47 36.02 175.85 36.05 175.22 36.07 C 162.33 14.48 138.72 0.00 111.70 0.00 C 70.90 0.00 37.83 32.99 37.83 73.70 C 37.83 74.22 37.86 74.75 37.87 75.27 C 15.56 87.95 0.50 111.88 0.50 139.33 C 0.50 180.03 33.57 213.02 74.37 213.02 C 76.69 213.02 78.98 212.90 81.25 212.69 C 94.80 229.07 115.30 239.50 138.25 239.50 C 175.96 239.50 207.04 211.31 211.54 174.91 C 234.99 162.56 250.98 138.01 250.98 109.72 Z" fill="#d6f0ff" fill-rule="nonzero" group-id="1,4" node-id="228" stroke="none" target-height="239.505" target-width="250.479" target-x="0.5" target-y="0"></path></g><g node-id="796"><path d="M 46.40 56.67 L 164.17 56.67 L 164.17 205.21 L 46.40 205.21 Z" fill="#ffffff" fill-rule="nonzero" group-id="1,5" node-id="232" stroke="none" target-height="148.54199" target-width="117.768005" target-x="46.401" target-y="56.671"></path><g node-id="809"><g node-id="847"><path d="M 47.40 56.67 L 192.78 56.67 L 192.78 198.12 L 47.40 198.12 Z" fill="#ffffff" fill-opacity="0.33" fill-rule="nonzero" group-id="1,5,18,56" node-id="238" stroke="none" target-height="141.454" target-width="145.377" target-x="47.401" target-y="56.671"></path><path d="M 192.78 199.62 L 47.40 199.62 C 46.57 199.62 45.90 198.95 45.90 198.12 L 45.90 56.67 C 45.90 55.84 46.57 55.17 47.40 55.17 L 192.78 55.17 C 193.61 55.17 194.28 55.84 194.28 56.67 L 194.28 198.12 C 194.28 198.95 193.61 199.62 192.78 199.62 Z M 48.90 196.62 L 191.28 196.62 L 191.28 58.17 L 48.90 58.17 L 48.90 196.62 Z" fill="#6e6e96" fill-opacity="0.33" fill-rule="nonzero" group-id="1,5,18,56" node-id="240" stroke="none" target-height="144.454" target-width="148.377" target-x="45.901" target-y="55.171"></path></g><g node-id="848"><path d="M 144.56 105.24 L 160.22 105.24 L 160.22 129.56 L 144.56 129.56 Z" fill="#bddfff" fill-opacity="0.33" fill-rule="nonzero" group-id="1,5,18,57" node-id="245" stroke="none" target-height="24.31099" target-width="15.658005" target-x="144.564" target-y="105.244"></path><path d="M 160.22 131.06 L 144.56 131.06 C 143.74 131.06 143.06 130.38 143.06 129.56 L 143.06 105.24 C 143.06 104.42 143.74 103.74 144.56 103.74 L 160.22 103.74 C 161.05 103.74 161.72 104.42 161.72 105.24 L 161.72 129.56 C 161.72 130.38 161.05 131.06 160.22 131.06 Z M 146.06 128.06 L 158.72 128.06 L 158.72 106.74 L 146.06 106.74 L 146.06 128.06 Z" fill="#6e6e96" fill-opacity="0.33" fill-rule="nonzero" group-id="1,5,18,57" node-id="247" stroke="none" target-height="27.31099" target-width="18.658005" target-x="143.064" target-y="103.744"></path></g><g node-id="849"><path d="M 144.56 135.44 L 160.22 135.44 L 160.22 159.60 L 144.56 159.60 Z" fill="#bddfff" fill-opacity="0.33" fill-rule="nonzero" group-id="1,5,18,58" node-id="252" stroke="none" target-height="24.159988" target-width="15.658005" target-x="144.564" target-y="135.445"></path><path d="M 160.22 161.10 L 144.56 161.10 C 143.74 161.10 143.06 160.43 143.06 159.60 L 143.06 135.44 C 143.06 134.62 143.74 133.94 144.56 133.94 L 160.22 133.94 C 161.05 133.94 161.72 134.62 161.72 135.44 L 161.72 159.60 C 161.72 160.43 161.05 161.10 160.22 161.10 Z M 146.06 158.10 L 158.72 158.10 L 158.72 136.94 L 146.06 136.94 L 146.06 158.10 Z" fill="#6e6e96" fill-opacity="0.33" fill-rule="nonzero" group-id="1,5,18,58" node-id="254" stroke="none" target-height="27.159988" target-width="18.658005" target-x="143.064" target-y="133.945"></path></g><g node-id="850"><path d="M 122.50 74.67 L 138.16 74.67 L 138.16 99.35 L 122.50 99.35 Z" fill="#bddfff" fill-opacity="0.33" fill-rule="nonzero" group-id="1,5,18,59" node-id="259" stroke="none" target-height="24.677002" target-width="15.660004" target-x="122.5" target-y="74.671"></path><path d="M 138.16 100.85 L 122.50 100.85 C 121.67 100.85 121.00 100.18 121.00 99.35 L 121.00 74.67 C 121.00 73.84 121.67 73.17 122.50 73.17 L 138.16 73.17 C 138.99 73.17 139.66 73.84 139.66 74.67 L 139.66 99.35 C 139.66 100.18 138.99 100.85 138.16 100.85 Z M 124.00 97.85 L 136.66 97.85 L 136.66 76.17 L 124.00 76.17 L 124.00 97.85 Z" fill="#6e6e96" fill-opacity="0.33" fill-rule="nonzero" group-id="1,5,18,59" node-id="261" stroke="none" target-height="27.677002" target-width="18.660004" target-x="121" target-y="73.171"></path></g><g node-id="851"><path d="M 122.50 105.24 L 138.16 105.24 L 138.16 129.56 L 122.50 129.56 Z" fill="#bddfff" fill-opacity="0.33" fill-rule="nonzero" group-id="1,5,18,60" node-id="266" stroke="none" target-height="24.31099" target-width="15.660004" target-x="122.5" target-y="105.244"></path><path d="M 138.16 131.06 L 122.50 131.06 C 121.67 131.06 121.00 130.38 121.00 129.56 L 121.00 105.24 C 121.00 104.42 121.67 103.74 122.50 103.74 L 138.16 103.74 C 138.99 103.74 139.66 104.42 139.66 105.24 L 139.66 129.56 C 139.66 130.38 138.99 131.06 138.16 131.06 Z M 124.00 128.06 L 136.66 128.06 L 136.66 106.74 L 124.00 106.74 L 124.00 128.06 Z" fill="#6e6e96" fill-opacity="0.33" fill-rule="nonzero" group-id="1,5,18,60" node-id="268" stroke="none" target-height="27.31099" target-width="18.660004" target-x="121" target-y="103.744"></path></g><g node-id="852"><path d="M 166.63 105.24 L 185.05 105.24 L 185.05 129.56 L 166.63 129.56 Z" fill="#bddfff" fill-opacity="0.33" fill-rule="nonzero" group-id="1,5,18,61" node-id="273" stroke="none" target-height="24.31099" target-width="18.425003" target-x="166.629" target-y="105.244"></path><path d="M 185.05 131.06 L 166.63 131.06 C 165.80 131.06 165.13 130.38 165.13 129.56 L 165.13 105.24 C 165.13 104.42 165.80 103.74 166.63 103.74 L 185.05 103.74 C 185.88 103.74 186.55 104.42 186.55 105.24 L 186.55 129.56 C 186.55 130.38 185.88 131.06 185.05 131.06 Z M 168.13 128.06 L 183.55 128.06 L 183.55 106.74 L 168.13 106.74 L 168.13 128.06 Z" fill="#6e6e96" fill-opacity="0.33" fill-rule="nonzero" group-id="1,5,18,61" node-id="275" stroke="none" target-height="27.31099" target-width="21.425003" target-x="165.129" target-y="103.744"></path></g><g node-id="853"><path d="M 144.56 74.67 L 160.22 74.67 L 160.22 99.35 L 144.56 99.35 Z" fill="#bddfff" fill-opacity="0.33" fill-rule="nonzero" group-id="1,5,18,62" node-id="280" stroke="none" target-height="24.677002" target-width="15.658005" target-x="144.564" target-y="74.671"></path><path d="M 160.22 100.85 L 144.56 100.85 C 143.74 100.85 143.06 100.18 143.06 99.35 L 143.06 74.67 C 143.06 73.84 143.74 73.17 144.56 73.17 L 160.22 73.17 C 161.05 73.17 161.72 73.84 161.72 74.67 L 161.72 99.35 C 161.72 100.18 161.05 100.85 160.22 100.85 Z M 146.06 97.85 L 158.72 97.85 L 158.72 76.17 L 146.06 76.17 L 146.06 97.85 Z" fill="#6e6e96" fill-opacity="0.33" fill-rule="nonzero" group-id="1,5,18,62" node-id="282" stroke="none" target-height="27.677002" target-width="18.658005" target-x="143.064" target-y="73.171"></path></g><g node-id="854"><path d="M 122.50 135.44 L 138.16 135.44 L 138.16 159.60 L 122.50 159.60 Z" fill="#bddfff" fill-opacity="0.33" fill-rule="nonzero" group-id="1,5,18,63" node-id="287" stroke="none" target-height="24.159988" target-width="15.660004" target-x="122.5" target-y="135.445"></path><path d="M 138.16 161.10 L 122.50 161.10 C 121.67 161.10 121.00 160.43 121.00 159.60 L 121.00 135.44 C 121.00 134.62 121.67 133.94 122.50 133.94 L 138.16 133.94 C 138.99 133.94 139.66 134.62 139.66 135.44 L 139.66 159.60 C 139.66 160.43 138.99 161.10 138.16 161.10 Z M 124.00 158.10 L 136.66 158.10 L 136.66 136.94 L 124.00 136.94 L 124.00 158.10 Z" fill="#6e6e96" fill-opacity="0.33" fill-rule="nonzero" group-id="1,5,18,63" node-id="289" stroke="none" target-height="27.159988" target-width="18.660004" target-x="121" target-y="133.945"></path></g><g node-id="855"><path d="M 166.63 74.67 L 185.05 74.67 L 185.05 99.35 L 166.63 99.35 Z" fill="#bddfff" fill-opacity="0.33" fill-rule="nonzero" group-id="1,5,18,64" node-id="294" stroke="none" target-height="24.677002" target-width="18.425003" target-x="166.629" target-y="74.671"></path><path d="M 185.05 100.85 L 166.63 100.85 C 165.80 100.85 165.13 100.18 165.13 99.35 L 165.13 74.67 C 165.13 73.84 165.80 73.17 166.63 73.17 L 185.05 73.17 C 185.88 73.17 186.55 73.84 186.55 74.67 L 186.55 99.35 C 186.55 100.18 185.88 100.85 185.05 100.85 Z M 168.13 97.85 L 183.55 97.85 L 183.55 76.17 L 168.13 76.17 L 168.13 97.85 Z" fill="#6e6e96" fill-opacity="0.33" fill-rule="nonzero" group-id="1,5,18,64" node-id="296" stroke="none" target-height="27.677002" target-width="21.425003" target-x="165.129" target-y="73.171"></path></g><g node-id="856"><path d="M 166.63 135.44 L 185.05 135.44 L 185.05 159.60 L 166.63 159.60 Z" fill="#bddfff" fill-opacity="0.33" fill-rule="nonzero" group-id="1,5,18,65" node-id="301" stroke="none" target-height="24.159988" target-width="18.425003" target-x="166.629" target-y="135.445"></path><path d="M 185.05 161.10 L 166.63 161.10 C 165.80 161.10 165.13 160.43 165.13 159.60 L 165.13 135.44 C 165.13 134.62 165.80 133.94 166.63 133.94 L 185.05 133.94 C 185.88 133.94 186.55 134.62 186.55 135.44 L 186.55 159.60 C 186.55 160.43 185.88 161.10 185.05 161.10 Z M 168.13 158.10 L 183.55 158.10 L 183.55 136.94 L 168.13 136.94 L 168.13 158.10 Z" fill="#6e6e96" fill-opacity="0.33" fill-rule="nonzero" group-id="1,5,18,65" node-id="303" stroke="none" target-height="27.159988" target-width="21.425003" target-x="165.129" target-y="133.945"></path></g><g node-id="857"><path d="M 55.02 105.24 L 71.97 105.24 L 71.97 129.56 L 55.02 129.56 Z" fill="#bddfff" fill-opacity="0.33" fill-rule="nonzero" group-id="1,5,18,66" node-id="308" stroke="none" target-height="24.31099" target-width="16.942001" target-x="55.025" target-y="105.244"></path><path d="M 71.97 131.06 L 55.02 131.06 C 54.20 131.06 53.52 130.38 53.52 129.56 L 53.52 105.24 C 53.52 104.42 54.20 103.74 55.02 103.74 L 71.97 103.74 C 72.80 103.74 73.47 104.42 73.47 105.24 L 73.47 129.56 C 73.47 130.38 72.80 131.06 71.97 131.06 Z M 56.52 128.06 L 70.47 128.06 L 70.47 106.74 L 56.52 106.74 L 56.52 128.06 Z" fill="#6e6e96" fill-opacity="0.33" fill-rule="nonzero" group-id="1,5,18,66" node-id="310" stroke="none" target-height="27.31099" target-width="19.942001" target-x="53.525" target-y="103.744"></path></g><g node-id="858"><path d="M 55.02 74.67 L 71.97 74.67 L 71.97 99.35 L 55.02 99.35 Z" fill="#bddfff" fill-opacity="0.33" fill-rule="nonzero" group-id="1,5,18,67" node-id="315" stroke="none" target-height="24.677002" target-width="16.942001" target-x="55.025" target-y="74.671"></path><path d="M 71.97 100.85 L 55.02 100.85 C 54.20 100.85 53.52 100.18 53.52 99.35 L 53.52 74.67 C 53.52 73.84 54.20 73.17 55.02 73.17 L 71.97 73.17 C 72.80 73.17 73.47 73.84 73.47 74.67 L 73.47 99.35 C 73.47 100.18 72.80 100.85 71.97 100.85 Z M 56.52 97.85 L 70.47 97.85 L 70.47 76.17 L 56.52 76.17 L 56.52 97.85 Z" fill="#6e6e96" fill-opacity="0.33" fill-rule="nonzero" group-id="1,5,18,67" node-id="317" stroke="none" target-height="27.677002" target-width="19.942001" target-x="53.525" target-y="73.171"></path></g><g node-id="859"><path d="M 55.02 135.44 L 71.97 135.44 L 71.97 159.60 L 55.02 159.60 Z" fill="#bddfff" fill-opacity="0.33" fill-rule="nonzero" group-id="1,5,18,68" node-id="322" stroke="none" target-height="24.159988" target-width="16.942001" target-x="55.025" target-y="135.445"></path><path d="M 71.97 161.10 L 55.02 161.10 C 54.20 161.10 53.52 160.43 53.52 159.60 L 53.52 135.44 C 53.52 134.62 54.20 133.94 55.02 133.94 L 71.97 133.94 C 72.80 133.94 73.47 134.62 73.47 135.44 L 73.47 159.60 C 73.47 160.43 72.80 161.10 71.97 161.10 Z M 56.52 158.10 L 70.47 158.10 L 70.47 136.94 L 56.52 136.94 L 56.52 158.10 Z" fill="#6e6e96" fill-opacity="0.33" fill-rule="nonzero" group-id="1,5,18,68" node-id="324" stroke="none" target-height="27.159988" target-width="19.942001" target-x="53.525" target-y="133.945"></path></g><g node-id="860"><path d="M 78.37 135.44 L 94.03 135.44 L 94.03 159.60 L 78.37 159.60 Z" fill="#bddfff" fill-opacity="0.33" fill-rule="nonzero" group-id="1,5,18,69" node-id="329" stroke="none" target-height="24.159988" target-width="15.654999" target-x="78.373" target-y="135.445"></path><path d="M 94.03 161.10 L 78.37 161.10 C 77.54 161.10 76.87 160.43 76.87 159.60 L 76.87 135.44 C 76.87 134.62 77.54 133.94 78.37 133.94 L 94.03 133.94 C 94.86 133.94 95.53 134.62 95.53 135.44 L 95.53 159.60 C 95.53 160.43 94.86 161.10 94.03 161.10 Z M 79.87 158.10 L 92.53 158.10 L 92.53 136.94 L 79.87 136.94 L 79.87 158.10 Z" fill="#6e6e96" fill-opacity="0.33" fill-rule="nonzero" group-id="1,5,18,69" node-id="331" stroke="none" target-height="27.159988" target-width="18.655998" target-x="76.873" target-y="133.945"></path></g><g node-id="861"><path d="M 78.37 105.24 L 94.03 105.24 L 94.03 129.56 L 78.37 129.56 Z" fill="#bddfff" fill-opacity="0.33" fill-rule="nonzero" group-id="1,5,18,70" node-id="336" stroke="none" target-height="24.31099" target-width="15.654999" target-x="78.373" target-y="105.244"></path><path d="M 94.03 131.06 L 78.37 131.06 C 77.54 131.06 76.87 130.38 76.87 129.56 L 76.87 105.24 C 76.87 104.42 77.54 103.74 78.37 103.74 L 94.03 103.74 C 94.86 103.74 95.53 104.42 95.53 105.24 L 95.53 129.56 C 95.53 130.38 94.86 131.06 94.03 131.06 Z M 79.87 128.06 L 92.53 128.06 L 92.53 106.74 L 79.87 106.74 L 79.87 128.06 Z" fill="#6e6e96" fill-opacity="0.33" fill-rule="nonzero" group-id="1,5,18,70" node-id="338" stroke="none" target-height="27.31099" target-width="18.655998" target-x="76.873" target-y="103.744"></path></g><g node-id="862"><path d="M 100.44 135.44 L 116.10 135.44 L 116.10 159.60 L 100.44 159.60 Z" fill="#bddfff" fill-opacity="0.33" fill-rule="nonzero" group-id="1,5,18,71" node-id="343" stroke="none" target-height="24.159988" target-width="15.659004" target-x="100.437" target-y="135.445"></path><path d="M 116.10 161.10 L 100.44 161.10 C 99.61 161.10 98.94 160.43 98.94 159.60 L 98.94 135.44 C 98.94 134.62 99.61 133.94 100.44 133.94 L 116.10 133.94 C 116.92 133.94 117.60 134.62 117.60 135.44 L 117.60 159.60 C 117.60 160.43 116.92 161.10 116.10 161.10 Z M 101.94 158.10 L 114.60 158.10 L 114.60 136.94 L 101.94 136.94 L 101.94 158.10 Z" fill="#6e6e96" fill-opacity="0.33" fill-rule="nonzero" group-id="1,5,18,71" node-id="345" stroke="none" target-height="27.159988" target-width="18.659004" target-x="98.937" target-y="133.945"></path></g><g node-id="863"><path d="M 100.44 74.67 L 116.10 74.67 L 116.10 99.35 L 100.44 99.35 Z" fill="#bddfff" fill-opacity="0.33" fill-rule="nonzero" group-id="1,5,18,72" node-id="350" stroke="none" target-height="24.677002" target-width="15.659004" target-x="100.437" target-y="74.671"></path><path d="M 116.10 100.85 L 100.44 100.85 C 99.61 100.85 98.94 100.18 98.94 99.35 L 98.94 74.67 C 98.94 73.84 99.61 73.17 100.44 73.17 L 116.10 73.17 C 116.92 73.17 117.60 73.84 117.60 74.67 L 117.60 99.35 C 117.60 100.18 116.92 100.85 116.10 100.85 Z M 101.94 97.85 L 114.60 97.85 L 114.60 76.17 L 101.94 76.17 L 101.94 97.85 Z" fill="#6e6e96" fill-opacity="0.33" fill-rule="nonzero" group-id="1,5,18,72" node-id="352" stroke="none" target-height="27.677002" target-width="18.659004" target-x="98.937" target-y="73.171"></path></g><g node-id="864"><path d="M 100.44 105.24 L 116.10 105.24 L 116.10 129.56 L 100.44 129.56 Z" fill="#bddfff" fill-opacity="0.33" fill-rule="nonzero" group-id="1,5,18,73" node-id="357" stroke="none" target-height="24.31099" target-width="15.659004" target-x="100.437" target-y="105.244"></path><path d="M 116.10 131.06 L 100.44 131.06 C 99.61 131.06 98.94 130.38 98.94 129.56 L 98.94 105.24 C 98.94 104.42 99.61 103.74 100.44 103.74 L 116.10 103.74 C 116.92 103.74 117.60 104.42 117.60 105.24 L 117.60 129.56 C 117.60 130.38 116.92 131.06 116.10 131.06 Z M 101.94 128.06 L 114.60 128.06 L 114.60 106.74 L 101.94 106.74 L 101.94 128.06 Z" fill="#6e6e96" fill-opacity="0.33" fill-rule="nonzero" group-id="1,5,18,73" node-id="359" stroke="none" target-height="27.31099" target-width="18.659004" target-x="98.937" target-y="103.744"></path></g><g node-id="865"><path d="M 78.37 74.67 L 94.03 74.67 L 94.03 99.35 L 78.37 99.35 Z" fill="#bddfff" fill-opacity="0.33" fill-rule="nonzero" group-id="1,5,18,74" node-id="364" stroke="none" target-height="24.677002" target-width="15.654999" target-x="78.373" target-y="74.671"></path><path d="M 94.03 100.85 L 78.37 100.85 C 77.54 100.85 76.87 100.18 76.87 99.35 L 76.87 74.67 C 76.87 73.84 77.54 73.17 78.37 73.17 L 94.03 73.17 C 94.86 73.17 95.53 73.84 95.53 74.67 L 95.53 99.35 C 95.53 100.18 94.86 100.85 94.03 100.85 Z M 79.87 97.85 L 92.53 97.85 L 92.53 76.17 L 79.87 76.17 L 79.87 97.85 Z" fill="#6e6e96" fill-opacity="0.33" fill-rule="nonzero" group-id="1,5,18,74" node-id="366" stroke="none" target-height="27.677002" target-width="18.655998" target-x="76.873" target-y="73.171"></path></g><g node-id="866"><path d="M 43.48 56.67 L 196.71 56.67 L 196.71 63.74 L 43.48 63.74 Z" fill="#d5b697" fill-opacity="0.33" fill-rule="nonzero" group-id="1,5,18,75" node-id="371" stroke="none" target-height="7.0739975" target-width="153.227" target-x="43.483" target-y="56.671"></path><path d="M 196.71 65.25 L 43.48 65.25 C 42.65 65.25 41.98 64.57 41.98 63.74 L 41.98 56.67 C 41.98 55.84 42.65 55.17 43.48 55.17 L 196.71 55.17 C 197.54 55.17 198.21 55.84 198.21 56.67 L 198.21 63.74 C 198.21 64.57 197.54 65.25 196.71 65.25 Z M 44.98 62.24 L 195.21 62.24 L 195.21 58.17 L 44.98 58.17 L 44.98 62.24 Z" fill="#6e6e96" fill-opacity="0.33" fill-rule="nonzero" group-id="1,5,18,75" node-id="373" stroke="none" target-height="10.074001" target-width="156.227" target-x="41.983" target-y="55.171"></path></g><g node-id="867"><path d="M 144.56 165.90 L 160.22 165.90 L 160.22 190.06 L 144.56 190.06 Z" fill="#bddfff" fill-opacity="0.33" fill-rule="nonzero" group-id="1,5,18,76" node-id="378" stroke="none" target-height="24.159988" target-width="15.658005" target-x="144.564" target-y="165.895"></path><path d="M 160.22 191.56 L 144.56 191.56 C 143.74 191.56 143.06 190.88 143.06 190.06 L 143.06 165.90 C 143.06 165.07 143.74 164.40 144.56 164.40 L 160.22 164.40 C 161.05 164.40 161.72 165.07 161.72 165.90 L 161.72 190.06 C 161.72 190.88 161.05 191.56 160.22 191.56 Z M 146.06 188.56 L 158.72 188.56 L 158.72 167.40 L 146.06 167.40 L 146.06 188.56 Z" fill="#6e6e96" fill-opacity="0.33" fill-rule="nonzero" group-id="1,5,18,76" node-id="380" stroke="none" target-height="27.159988" target-width="18.658005" target-x="143.064" target-y="164.395"></path></g><g node-id="868"><path d="M 166.63 165.90 L 185.05 165.90 L 185.05 190.06 L 166.63 190.06 Z" fill="#bddfff" fill-opacity="0.33" fill-rule="nonzero" group-id="1,5,18,77" node-id="385" stroke="none" target-height="24.159988" target-width="18.425003" target-x="166.629" target-y="165.895"></path><path d="M 185.05 191.56 L 166.63 191.56 C 165.80 191.56 165.13 190.88 165.13 190.06 L 165.13 165.90 C 165.13 165.07 165.80 164.40 166.63 164.40 L 185.05 164.40 C 185.88 164.40 186.55 165.07 186.55 165.90 L 186.55 190.06 C 186.55 190.88 185.88 191.56 185.05 191.56 Z M 168.13 188.56 L 183.55 188.56 L 183.55 167.40 L 168.13 167.40 L 168.13 188.56 Z" fill="#6e6e96" fill-opacity="0.33" fill-rule="nonzero" group-id="1,5,18,77" node-id="387" stroke="none" target-height="27.159988" target-width="21.425003" target-x="165.129" target-y="164.395"></path></g><g node-id="869"><path d="M 55.02 165.90 L 71.97 165.90 L 71.97 190.06 L 55.02 190.06 Z" fill="#bddfff" fill-opacity="0.33" fill-rule="nonzero" group-id="1,5,18,78" node-id="392" stroke="none" target-height="24.159988" target-width="16.942001" target-x="55.025" target-y="165.895"></path><path d="M 71.97 191.56 L 55.02 191.56 C 54.20 191.56 53.52 190.88 53.52 190.06 L 53.52 165.90 C 53.52 165.07 54.20 164.40 55.02 164.40 L 71.97 164.40 C 72.80 164.40 73.47 165.07 73.47 165.90 L 73.47 190.06 C 73.47 190.88 72.80 191.56 71.97 191.56 Z M 56.52 188.56 L 70.47 188.56 L 70.47 167.40 L 56.52 167.40 L 56.52 188.56 Z" fill="#6e6e96" fill-opacity="0.33" fill-rule="nonzero" group-id="1,5,18,78" node-id="394" stroke="none" target-height="27.159988" target-width="19.942001" target-x="53.525" target-y="164.395"></path></g><g node-id="870"><path d="M 78.37 165.90 L 94.03 165.90 L 94.03 190.06 L 78.37 190.06 Z" fill="#bddfff" fill-opacity="0.33" fill-rule="nonzero" group-id="1,5,18,79" node-id="399" stroke="none" target-height="24.159988" target-width="15.654999" target-x="78.373" target-y="165.895"></path><path d="M 94.03 191.56 L 78.37 191.56 C 77.54 191.56 76.87 190.88 76.87 190.06 L 76.87 165.90 C 76.87 165.07 77.54 164.40 78.37 164.40 L 94.03 164.40 C 94.86 164.40 95.53 165.07 95.53 165.90 L 95.53 190.06 C 95.53 190.88 94.86 191.56 94.03 191.56 Z M 79.87 188.56 L 92.53 188.56 L 92.53 167.40 L 79.87 167.40 L 79.87 188.56 Z" fill="#6e6e96" fill-opacity="0.33" fill-rule="nonzero" group-id="1,5,18,79" node-id="401" stroke="none" target-height="27.159988" target-width="18.655998" target-x="76.873" target-y="164.395"></path></g><g node-id="871"><path d="M 100.44 165.90 L 138.22 165.90 L 138.22 198.12 L 100.44 198.12 Z" fill="#e4bc96" fill-opacity="0.33" fill-rule="nonzero" group-id="1,5,18,80" node-id="406" stroke="none" target-height="32.22899" target-width="37.783997" target-x="100.437" target-y="165.895"></path><path d="M 138.22 199.62 L 100.44 199.62 C 99.61 199.62 98.94 198.95 98.94 198.12 L 98.94 165.90 C 98.94 165.07 99.61 164.40 100.44 164.40 L 138.22 164.40 C 139.05 164.40 139.72 165.07 139.72 165.90 L 139.72 198.12 C 139.72 198.95 139.05 199.62 138.22 199.62 Z M 101.94 196.62 L 136.72 196.62 L 136.72 167.40 L 101.94 167.40 L 101.94 196.62 Z" fill="#6e6e96" fill-opacity="0.33" fill-rule="nonzero" group-id="1,5,18,80" node-id="408" stroke="none" target-height="35.22899" target-width="40.783997" target-x="98.937" target-y="164.395"></path></g><path d="M 119.11 199.62 C 118.28 199.62 117.61 198.95 117.61 198.12 L 117.61 165.90 C 117.61 165.07 118.28 164.40 119.11 164.40 C 119.94 164.40 120.61 165.07 120.61 165.90 L 120.61 198.12 C 120.61 198.95 119.94 199.62 119.11 199.62 Z" fill="#6e6e96" fill-opacity="0.33" fill-rule="nonzero" group-id="1,5,18" node-id="411" stroke="none" target-height="35.229996" target-width="3" target-x="117.613" target-y="164.395"></path></g><path d="M 85.83 195.56 L 123.83 195.56 L 123.83 213.56 L 85.83 213.56 Z" fill="#d6f0ff" fill-rule="nonzero" group-id="1,5" node-id="414" stroke="none" target-height="18" target-width="38" target-x="85.833" target-y="195.557"></path><path d="M 101.62 25.60 L 80.50 25.60 C 79.12 25.60 78.00 24.48 78.00 23.10 C 78.00 21.72 79.12 20.60 80.50 20.60 L 101.62 20.60 C 103.01 20.60 104.12 21.72 104.12 23.10 C 104.12 24.48 103.01 25.60 101.62 25.60 Z" fill="#ffffff" fill-rule="nonzero" group-id="1,5" node-id="416" stroke="none" target-height="5" target-width="26.125" target-x="78" target-y="20.598"></path><path d="M 115.47 36.52 L 90.70 36.52 C 89.32 36.52 88.20 35.41 88.20 34.02 C 88.20 32.64 89.32 31.52 90.70 31.52 L 115.47 31.52 C 116.85 31.52 117.97 32.64 117.97 34.02 C 117.97 35.41 116.85 36.52 115.47 36.52 Z" fill="#ffffff" fill-rule="nonzero" group-id="1,5" node-id="418" stroke="none" target-height="5.000002" target-width="29.766998" target-x="88.198" target-y="31.525"></path></g><g node-id="797"><g node-id="810"><path d="M 156.50 21.59 L 223.62 21.59 L 223.62 31.15 L 156.50 31.15 Z" fill="#ebebf7" fill-rule="nonzero" group-id="1,6,19" node-id="424" stroke="none" target-height="9.561001" target-width="67.121994" target-x="156.502" target-y="21.587"></path><path d="M 223.62 32.65 L 156.50 32.65 C 155.67 32.65 155.00 31.98 155.00 31.15 L 155.00 21.59 C 155.00 20.76 155.67 20.09 156.50 20.09 L 223.62 20.09 C 224.45 20.09 225.12 20.76 225.12 21.59 L 225.12 31.15 C 225.12 31.98 224.45 32.65 223.62 32.65 Z M 158.00 29.65 L 222.12 29.65 L 222.12 23.09 L 158.00 23.09 L 158.00 29.65 Z" fill="#ccccde" fill-rule="nonzero" group-id="1,6,19" node-id="426" stroke="none" target-height="12.560999" target-width="70.121994" target-x="155.002" target-y="20.087"></path></g><g node-id="811"><path d="M 137.10 30.98 L 242.69 30.98 L 242.69 200.34 L 137.10 200.34 Z" fill="#ffffff" fill-rule="nonzero" group-id="1,6,20" node-id="431" stroke="none" target-height="169.35501" target-width="105.58899" target-x="137.1" target-y="30.982"></path><path d="M 242.69 201.84 L 137.10 201.84 C 136.27 201.84 135.60 201.16 135.60 200.34 L 135.60 30.98 C 135.60 30.15 136.27 29.48 137.10 29.48 L 242.69 29.48 C 243.52 29.48 244.19 30.15 244.19 30.98 L 244.19 200.34 C 244.19 201.16 243.52 201.84 242.69 201.84 Z M 138.60 198.84 L 241.19 198.84 L 241.19 32.48 L 138.60 32.48 L 138.60 198.84 Z" fill="#ccccde" fill-rule="nonzero" group-id="1,6,20" node-id="433" stroke="none" target-height="172.35501" target-width="108.58899" target-x="135.6" target-y="29.482"></path></g><g node-id="812"><path d="M 146.17 39.45 L 234.21 39.45 L 234.21 200.34 L 146.17 200.34 Z" fill="#cfe7ff" fill-rule="nonzero" group-id="1,6,21" node-id="438" stroke="none" target-height="160.893" target-width="88.03601" target-x="146.174" target-y="39.445"></path><path d="M 234.21 201.84 L 146.17 201.84 C 145.35 201.84 144.67 201.17 144.67 200.34 L 144.67 39.45 C 144.67 38.62 145.35 37.95 146.17 37.95 L 234.21 37.95 C 235.04 37.95 235.71 38.62 235.71 39.45 L 235.71 200.34 C 235.71 201.17 235.04 201.84 234.21 201.84 Z M 147.67 198.84 L 232.71 198.84 L 232.71 40.95 L 147.67 40.95 L 147.67 198.84 Z" fill="#ccccde" fill-rule="nonzero" group-id="1,6,21" node-id="440" stroke="none" target-height="163.893" target-width="91.03601" target-x="144.674" target-y="37.945"></path></g><g node-id="813"><path d="M 147.30 123.09 L 229.94 40.45 L 170.00 40.62 L 147.30 63.99 Z" fill="#ffffff" fill-opacity="0.49" fill-rule="nonzero" group-id="1,6,22" node-id="445" stroke="none" target-height="82.63901" target-width="82.64101" target-x="147.297" target-y="40.452"></path></g><g node-id="814"><path d="M 233.48 62.66 L 146.65 149.49 L 170.50 150.18 L 233.48 87.20 Z" fill="#ffffff" fill-opacity="0.27" fill-rule="nonzero" group-id="1,6,23" node-id="450" stroke="none" target-height="87.51199" target-width="86.825" target-x="146.653" target-y="62.664"></path></g><g node-id="815"><path d="M 146.17 149.54 L 234.21 149.54 L 234.21 200.34 L 146.17 200.34 Z" fill="#cfe7ff" fill-rule="nonzero" group-id="1,6,24" node-id="455" stroke="none" target-height="50.793" target-width="88.03601" target-x="146.174" target-y="149.544"></path><path d="M 234.21 201.84 L 146.17 201.84 C 145.35 201.84 144.67 201.16 144.67 200.34 L 144.67 149.54 C 144.67 148.72 145.35 148.04 146.17 148.04 L 234.21 148.04 C 235.04 148.04 235.71 148.72 235.71 149.54 L 235.71 200.34 C 235.71 201.16 235.04 201.84 234.21 201.84 Z M 147.67 198.84 L 232.71 198.84 L 232.71 151.04 L 147.67 151.04 L 147.67 198.84 Z" fill="#ccccde" fill-rule="nonzero" group-id="1,6,24" node-id="457" stroke="none" target-height="53.793" target-width="91.03601" target-x="144.674" target-y="148.044"></path></g><g node-id="816"><g node-id="872"><path d="M 169.29 162.00 L 147.47 183.19 L 147.47 196.12 L 169.29 174.94 Z" fill="#ffffff" fill-opacity="0.1813" fill-rule="nonzero" group-id="1,6,25,81" node-id="464" stroke="none" target-height="34.121994" target-width="21.817993" target-x="147.475" target-y="162.003"></path></g><path d="M 147.35 173.38 L 159.06 162.00 L 147.35 162.00" fill="#ffffff" fill-opacity="0.1813" fill-rule="nonzero" group-id="1,6,25,82" node-id="469" stroke="none" target-height="11.373001" target-width="11.712997" target-x="147.349" target-y="162.003"></path></g><g node-id="817"><g node-id="874"><path d="M 200.76 162.00 L 179.57 183.19 L 179.57 196.12 L 200.76 174.94 Z" fill="#ffffff" fill-opacity="0.1813" fill-rule="nonzero" group-id="1,6,26,83" node-id="477" stroke="none" target-height="34.121994" target-width="21.184998" target-x="179.573" target-y="162.003"></path></g><path d="M 180.29 173.38 L 191.67 162.00 L 180.29 162.00" fill="#ffffff" fill-opacity="0.1813" fill-rule="nonzero" group-id="1,6,26,84" node-id="482" stroke="none" target-height="11.373001" target-width="11.373001" target-x="180.294" target-y="162.003"></path></g><g node-id="818"><g node-id="876"><path d="M 233.02 162.00 L 209.48 183.19 L 209.48 196.12 L 233.02 174.94 Z" fill="#ffffff" fill-opacity="0.1813" fill-rule="nonzero" group-id="1,6,27,85" node-id="490" stroke="none" target-height="34.121994" target-width="23.53801" target-x="209.48" target-y="162.003"></path></g><path d="M 210.28 173.38 L 222.92 162.00 L 210.28 162.00" fill="#ffffff" fill-opacity="0.1813" fill-rule="nonzero" group-id="1,6,27,86" node-id="495" stroke="none" target-height="11.373001" target-width="12.6380005" target-x="210.28" target-y="162.003"></path></g><path d="M 155.89 39.45 L 158.89 39.45 L 158.89 149.54 L 155.89 149.54 Z" fill="#ccccde" fill-rule="nonzero" group-id="1,6" node-id="499" stroke="none" target-height="110.09901" target-width="3" target-x="155.893" target-y="39.445"></path><path d="M 167.13 39.45 L 170.13 39.45 L 170.13 149.54 L 167.13 149.54 Z" fill="#ccccde" fill-rule="nonzero" group-id="1,6" node-id="501" stroke="none" target-height="110.09901" target-width="3" target-x="167.127" target-y="39.445"></path><path d="M 178.08 39.45 L 181.08 39.45 L 181.08 149.54 L 178.08 149.54 Z" fill="#ccccde" fill-rule="nonzero" group-id="1,6" node-id="503" stroke="none" target-height="110.09901" target-width="3" target-x="178.079" target-y="39.445"></path><path d="M 189.59 39.45 L 192.59 39.45 L 192.59 149.54 L 189.59 149.54 Z" fill="#ccccde" fill-rule="nonzero" group-id="1,6" node-id="505" stroke="none" target-height="110.09901" target-width="3" target-x="189.593" target-y="39.445"></path><path d="M 200.54 39.45 L 203.54 39.45 L 203.54 149.54 L 200.54 149.54 Z" fill="#ccccde" fill-rule="nonzero" group-id="1,6" node-id="507" stroke="none" target-height="110.09901" target-width="3" target-x="200.545" target-y="39.445"></path><path d="M 211.22 39.45 L 214.22 39.45 L 214.22 149.54 L 211.22 149.54 Z" fill="#ccccde" fill-rule="nonzero" group-id="1,6" node-id="509" stroke="none" target-height="110.09901" target-width="3" target-x="211.216" target-y="39.445"></path><path d="M 221.89 39.45 L 224.89 39.45 L 224.89 149.54 L 221.89 149.54 Z" fill="#ccccde" fill-rule="nonzero" group-id="1,6" node-id="511" stroke="none" target-height="110.09901" target-width="3" target-x="221.888" target-y="39.445"></path><path d="M 234.21 64.16 L 146.17 64.16 C 145.35 64.16 144.67 63.49 144.67 62.66 C 144.67 61.83 145.35 61.16 146.17 61.16 L 234.21 61.16 C 235.04 61.16 235.71 61.83 235.71 62.66 C 235.71 63.49 235.04 64.16 234.21 64.16 Z" fill="#ccccde" fill-rule="nonzero" group-id="1,6" node-id="513" stroke="none" target-height="3.0000038" target-width="91.03601" target-x="144.674" target-y="61.16"></path><path d="M 234.21 86.62 L 146.17 86.62 C 145.35 86.62 144.67 85.95 144.67 85.12 C 144.67 84.30 145.35 83.62 146.17 83.62 L 234.21 83.62 C 235.04 83.62 235.71 84.30 235.71 85.12 C 235.71 85.95 235.04 86.62 234.21 86.62 Z" fill="#ccccde" fill-rule="nonzero" group-id="1,6" node-id="515" stroke="none" target-height="3" target-width="91.03601" target-x="144.674" target-y="83.625"></path><path d="M 234.21 107.97 L 146.17 107.97 C 145.35 107.97 144.67 107.30 144.67 106.47 C 144.67 105.64 145.35 104.97 146.17 104.97 L 234.21 104.97 C 235.04 104.97 235.71 105.64 235.71 106.47 C 235.71 107.30 235.04 107.97 234.21 107.97 Z" fill="#ccccde" fill-rule="nonzero" group-id="1,6" node-id="517" stroke="none" target-height="3" target-width="91.03601" target-x="144.674" target-y="104.969"></path><path d="M 146.17 126.31 L 234.21 126.31 L 234.21 129.31 L 146.17 129.31 Z" fill="#ccccde" fill-rule="nonzero" group-id="1,6" node-id="519" stroke="none" target-height="3.0000076" target-width="88.03601" target-x="146.174" target-y="126.311"></path><path d="M 170.59 157.72 L 179.57 157.72 L 179.57 200.34 L 170.59 200.34 Z" fill="#f0f0ff" fill-rule="nonzero" group-id="1,6,28" node-id="523" stroke="none" target-height="42.61801" target-width="8.981003" target-x="170.592" target-y="157.719"></path><path d="M 179.57 201.84 L 170.59 201.84 C 169.76 201.84 169.09 201.16 169.09 200.34 L 169.09 157.72 C 169.09 156.89 169.76 156.22 170.59 156.22 L 179.57 156.22 C 180.40 156.22 181.07 156.89 181.07 157.72 L 181.07 200.34 C 181.07 201.16 180.40 201.84 179.57 201.84 Z M 172.09 198.84 L 178.07 198.84 L 178.07 159.22 L 172.09 159.22 L 172.09 198.84 Z" fill="#ccccde" fill-rule="nonzero" group-id="1,6,28" node-id="525" stroke="none" target-height="45.61801" target-width="11.981003" target-x="169.092" target-y="156.219"></path><path d="M 200.50 155.77 L 208.93 155.77 L 208.93 200.34 L 200.50 200.34 Z" fill="#f0f0ff" fill-rule="nonzero" group-id="1,6,29" node-id="530" stroke="none" target-height="44.56201" target-width="8.425003" target-x="200.5" target-y="155.773"></path><path d="M 208.93 201.84 L 200.50 201.84 C 199.67 201.84 199.00 201.16 199.00 200.34 L 199.00 155.77 C 199.00 154.95 199.67 154.27 200.50 154.27 L 208.93 154.27 C 209.75 154.27 210.43 154.95 210.43 155.77 L 210.43 200.34 C 210.43 201.16 209.75 201.84 208.93 201.84 Z M 202.00 198.84 L 207.43 198.84 L 207.43 157.27 L 202.00 157.27 L 202.00 198.84 Z" fill="#ccccde" fill-rule="nonzero" group-id="1,6,29" node-id="532" stroke="none" target-height="47.561996" target-width="11.425003" target-x="199" target-y="154.274"></path><path d="M 146.17 149.54 L 234.21 149.54 L 234.21 162.00 L 146.17 162.00 Z" fill="#f0f0ff" fill-rule="nonzero" group-id="1,6,30" node-id="537" stroke="none" target-height="12.459" target-width="88.03601" target-x="146.174" target-y="149.544"></path><path d="M 234.21 163.50 L 146.17 163.50 C 145.35 163.50 144.67 162.83 144.67 162.00 L 144.67 149.54 C 144.67 148.72 145.35 148.04 146.17 148.04 L 234.21 148.04 C 235.04 148.04 235.71 148.72 235.71 149.54 L 235.71 162.00 C 235.71 162.83 235.04 163.50 234.21 163.50 Z M 147.67 160.50 L 232.71 160.50 L 232.71 151.04 L 147.67 151.04 L 147.67 160.50 Z" fill="#ccccde" fill-rule="nonzero" group-id="1,6,30" node-id="539" stroke="none" target-height="15.459" target-width="91.03601" target-x="144.674" target-y="148.044"></path><path d="M 175.32 14.08 L 204.81 14.08 L 204.81 21.59 L 175.32 21.59 Z" fill="#ebebf7" fill-rule="nonzero" group-id="1,6,31" node-id="544" stroke="none" target-height="7.509" target-width="29.485992" target-x="175.319" target-y="14.078"></path><path d="M 204.81 23.09 L 175.32 23.09 C 174.49 23.09 173.82 22.42 173.82 21.59 L 173.82 14.08 C 173.82 13.25 174.49 12.58 175.32 12.58 L 204.81 12.58 C 205.63 12.58 206.31 13.25 206.31 14.08 L 206.31 21.59 C 206.31 22.42 205.63 23.09 204.81 23.09 Z M 176.82 20.09 L 203.31 20.09 L 203.31 15.58 L 176.82 15.58 L 176.82 20.09 Z" fill="#ccccde" fill-rule="nonzero" group-id="1,6,31" node-id="546" stroke="none" target-height="10.509" target-width="32.485992" target-x="173.819" target-y="12.578"></path><path d="M 190.06 15.58 C 189.24 15.58 188.56 14.91 188.56 14.08 L 188.56 1.83 C 188.56 1.00 189.24 0.33 190.06 0.33 C 190.89 0.33 191.56 1.00 191.56 1.83 L 191.56 14.08 C 191.56 14.91 190.89 15.58 190.06 15.58 Z" fill="#ccccde" fill-rule="nonzero" group-id="1,6" node-id="549" stroke="none" target-height="15.252" target-width="3" target-x="188.563" target-y="0.326"></path><path d="M 133.37 196.05 L 248.10 196.05 L 248.10 204.76 L 133.37 204.76 Z" fill="#f0f0ff" fill-rule="nonzero" group-id="1,6,32" node-id="553" stroke="none" target-height="8.706009" target-width="114.727005" target-x="133.373" target-y="196.051"></path><path d="M 248.10 206.26 L 133.37 206.26 C 132.54 206.26 131.87 205.59 131.87 204.76 L 131.87 196.05 C 131.87 195.22 132.54 194.55 133.37 194.55 L 248.10 194.55 C 248.93 194.55 249.60 195.22 249.60 196.05 L 249.60 204.76 C 249.60 205.59 248.93 206.26 248.10 206.26 Z M 134.87 203.26 L 246.60 203.26 L 246.60 197.55 L 134.87 197.55 L 134.87 203.26 Z" fill="#ccccde" fill-rule="nonzero" group-id="1,6,32" node-id="555" stroke="none" target-height="11.706009" target-width="117.727005" target-x="131.873" target-y="194.551"></path></g><g node-id="798"><g node-id="824"><path d="M 98.44 204.76 L 9.33 204.76 L 9.33 128.59 L 53.89 100.07 L 98.44 128.59 Z" fill="#ffffff" fill-rule="nonzero" group-id="1,7,33" node-id="562" stroke="none" target-height="104.685005" target-width="89.111" target-x="9.331" target-y="100.072"></path><path d="M 99.94 206.26 L 7.83 206.26 L 7.83 127.77 L 53.89 98.29 L 99.94 127.77 L 99.94 206.26 Z M 10.83 203.26 L 96.94 203.26 L 96.94 129.41 L 53.89 101.85 L 10.83 129.41 L 10.83 203.26 Z" fill="#ccccde" fill-rule="nonzero" group-id="1,7,33" node-id="564" stroke="none" target-height="107.965004" target-width="92.111" target-x="7.831" target-y="98.292"></path></g><g node-id="825"><path d="M 53.89 95.23 L 1.50 127.08 L 1.50 132.32 L 9.33 132.32 L 53.89 104.81 L 98.32 132.68 L 105.19 132.79 L 105.19 127.08 Z" fill="#e0e6fc" fill-rule="nonzero" group-id="1,7,34" node-id="569" stroke="none" target-height="37.556" target-width="103.693" target-x="1.5" target-y="95.235"></path><path d="M 105.19 134.29 C 105.19 134.29 105.18 134.29 105.17 134.29 L 98.30 134.18 C 98.02 134.18 97.76 134.10 97.53 133.96 L 53.88 106.58 L 10.12 133.60 C 9.88 133.74 9.61 133.82 9.33 133.82 L 1.50 133.82 C 0.67 133.82 0.00 133.15 0.00 132.32 L 0.00 127.08 C 0.00 126.56 0.27 126.07 0.72 125.80 L 53.11 93.95 C 53.59 93.66 54.20 93.66 54.68 93.96 L 105.98 125.81 C 106.42 126.08 106.69 126.56 106.69 127.08 L 106.69 132.79 C 106.69 133.19 106.53 133.58 106.25 133.86 C 105.96 134.14 105.59 134.29 105.19 134.29 Z M 98.76 131.19 L 103.69 131.27 L 103.69 127.92 L 53.88 97.00 L 3.00 127.93 L 3.00 130.82 L 8.90 130.82 L 53.10 103.54 C 53.59 103.24 54.20 103.24 54.68 103.55 L 98.76 131.19 Z" fill="#ccccde" fill-rule="nonzero" group-id="1,7,34" node-id="571" stroke="none" target-height="40.629997" target-width="106.693" target-x="0" target-y="93.661"></path></g><g node-id="826"><path d="M 17.74 166.61 L 47.99 166.61 L 47.99 186.57 L 17.74 186.57 Z" fill="#d4eaff" fill-rule="nonzero" group-id="1,7,35" node-id="576" stroke="none" target-height="19.960999" target-width="30.25" target-x="17.744" target-y="166.613"></path><path d="M 47.99 188.07 L 17.74 188.07 C 16.91 188.07 16.24 187.40 16.24 186.57 L 16.24 166.61 C 16.24 165.78 16.91 165.11 17.74 165.11 L 47.99 165.11 C 48.82 165.11 49.49 165.78 49.49 166.61 L 49.49 186.57 C 49.49 187.40 48.82 188.07 47.99 188.07 Z M 19.24 185.07 L 46.49 185.07 L 46.49 168.11 L 19.24 168.11 L 19.24 185.07 Z" fill="#ccccde" fill-rule="nonzero" group-id="1,7,35" node-id="578" stroke="none" target-height="22.960999" target-width="33.25" target-x="16.244" target-y="165.113"></path></g><g node-id="827"><path d="M 9.33 192.63 L 98.44 192.63 L 98.44 204.76 L 9.33 204.76 Z" fill="#fcebe3" fill-rule="nonzero" group-id="1,7,36" node-id="583" stroke="none" target-height="12.130997" target-width="89.109" target-x="9.331" target-y="192.626"></path><path d="M 98.44 206.26 L 9.33 206.26 C 8.50 206.26 7.83 205.59 7.83 204.76 L 7.83 192.63 C 7.83 191.80 8.50 191.13 9.33 191.13 L 98.44 191.13 C 99.27 191.13 99.94 191.80 99.94 192.63 L 99.94 204.76 C 99.94 205.59 99.27 206.26 98.44 206.26 Z M 10.83 203.26 L 96.94 203.26 L 96.94 194.13 L 10.83 194.13 L 10.83 203.26 Z" fill="#ccccde" fill-rule="nonzero" group-id="1,7,36" node-id="585" stroke="none" target-height="15.130997" target-width="92.11" target-x="7.831" target-y="191.126"></path></g><g node-id="828"><path d="M 49.26 204.76 C 49.26 204.74 49.26 204.71 49.26 204.69 C 49.26 200.93 46.63 197.89 43.40 197.89 C 41.90 197.89 40.53 198.55 39.50 199.62 C 38.69 195.15 35.28 191.80 31.19 191.80 C 29.33 191.80 27.61 192.50 26.21 193.68 C 24.45 190.88 21.61 189.04 18.39 189.04 C 13.97 189.04 10.25 192.48 9.09 197.18 C 8.66 197.07 8.21 197.00 7.75 197.00 C 4.30 197.00 1.50 200.24 1.50 204.25 C 1.50 204.42 1.51 204.59 1.52 204.76 L 49.26 204.76 L 49.26 204.76 Z" fill="#cce8d6" fill-rule="nonzero" group-id="1,7,37" node-id="590" stroke="none" target-height="15.712997" target-width="47.761" target-x="1.5" target-y="189.044"></path><path d="M 49.26 206.26 L 1.52 206.26 C 0.72 206.26 0.06 205.63 0.02 204.83 C 0.01 204.57 0.00 204.41 0.00 204.25 C 0.00 199.32 3.61 195.32 8.03 195.51 C 9.71 190.76 13.81 187.54 18.39 187.54 C 21.50 187.54 24.46 189.03 26.55 191.60 C 27.98 190.75 29.55 190.30 31.19 190.30 C 35.21 190.30 38.79 193.07 40.35 197.13 C 41.30 196.64 42.33 196.39 43.39 196.39 C 47.45 196.39 50.76 200.11 50.76 204.69 C 50.76 204.73 50.76 204.81 50.75 204.85 C 50.75 205.68 50.09 206.26 49.26 206.26 Z M 3.07 203.26 L 47.61 203.26 C 47.11 201.05 45.41 199.39 43.40 199.39 C 42.08 199.39 41.14 200.08 40.58 200.66 C 40.19 201.06 39.60 201.21 39.06 201.05 C 38.52 200.89 38.12 200.44 38.02 199.89 C 37.33 196.07 34.46 193.30 31.19 193.30 C 29.75 193.30 28.36 193.83 27.18 194.83 C 26.85 195.11 26.41 195.23 25.98 195.16 C 25.55 195.10 25.17 194.85 24.94 194.48 C 23.37 191.98 20.99 190.54 18.39 190.54 C 14.79 190.54 11.57 193.42 10.55 197.54 C 10.46 197.93 10.21 198.26 9.86 198.46 C 9.52 198.67 9.11 198.73 8.72 198.63 C 8.38 198.54 8.06 198.50 7.75 198.50 C 5.41 198.50 3.46 200.56 3.07 203.26 Z" fill="#ccccde" fill-rule="nonzero" group-id="1,7,37" node-id="592" stroke="none" target-height="18.712997" target-width="50.759" target-x="0" target-y="187.544"></path></g><g node-id="829"><path d="M 61.47 166.61 L 84.71 166.61 L 84.71 204.76 L 61.47 204.76 Z" fill="#ffdede" fill-rule="nonzero" group-id="1,7,38" node-id="597" stroke="none" target-height="38.14499" target-width="23.239998" target-x="61.471" target-y="166.613"></path><path d="M 84.71 206.26 L 61.47 206.26 C 60.64 206.26 59.97 205.59 59.97 204.76 L 59.97 166.61 C 59.97 165.78 60.64 165.11 61.47 165.11 L 84.71 165.11 C 85.54 165.11 86.21 165.78 86.21 166.61 L 86.21 204.76 C 86.21 205.59 85.54 206.26 84.71 206.26 Z M 62.97 203.26 L 83.21 203.26 L 83.21 168.11 L 62.97 168.11 L 62.97 203.26 Z" fill="#ccccde" fill-rule="nonzero" group-id="1,7,38" node-id="599" stroke="none" target-height="41.14499" target-width="26.239998" target-x="59.971" target-y="165.113"></path></g><path d="M 98.44 161.01 L 9.33 161.01 C 8.50 161.01 7.83 160.34 7.83 159.51 C 7.83 158.68 8.50 158.01 9.33 158.01 L 98.44 158.01 C 99.27 158.01 99.94 158.68 99.94 159.51 C 99.94 160.34 99.27 161.01 98.44 161.01 Z" fill="#ccccde" fill-rule="nonzero" group-id="1,7" node-id="602" stroke="none" target-height="3" target-width="92.11" target-x="7.831" target-y="158.007"></path><path d="M 17.74 133.69 L 34.02 133.69 L 34.02 152.22 L 17.74 152.22 Z" fill="#d4eaff" fill-rule="nonzero" group-id="1,7,39,87" node-id="608" stroke="none" target-height="18.535004" target-width="16.274002" target-x="17.744" target-y="133.689"></path><path d="M 34.02 153.72 L 17.74 153.72 C 16.91 153.72 16.24 153.05 16.24 152.22 L 16.24 133.69 C 16.24 132.86 16.91 132.19 17.74 132.19 L 34.02 132.19 C 34.85 132.19 35.52 132.86 35.52 133.69 L 35.52 152.22 C 35.52 153.05 34.85 153.72 34.02 153.72 Z M 19.24 150.72 L 32.52 150.72 L 32.52 135.19 L 19.24 135.19 L 19.24 150.72 Z" fill="#ccccde" fill-rule="nonzero" group-id="1,7,39,87" node-id="610" stroke="none" target-height="21.535004" target-width="19.275002" target-x="16.244" target-y="132.19"></path><path d="M 34.02 144.46 L 17.74 144.46 C 16.91 144.46 16.24 143.78 16.24 142.96 C 16.24 142.13 16.91 141.46 17.74 141.46 L 34.02 141.46 C 34.85 141.46 35.52 142.13 35.52 142.96 C 35.52 143.78 34.85 144.46 34.02 144.46 Z" fill="#ccccde" fill-rule="nonzero" group-id="1,7,39" node-id="613" stroke="none" target-height="3" target-width="19.276001" target-x="16.244" target-y="141.457"></path><path d="M 73.42 133.69 L 89.70 133.69 L 89.70 152.22 L 73.42 152.22 Z" fill="#d4eaff" fill-rule="nonzero" group-id="1,7,40,88" node-id="620" stroke="none" target-height="18.535004" target-width="16.277" target-x="73.422" target-y="133.689"></path><path d="M 89.70 153.72 L 73.42 153.72 C 72.59 153.72 71.92 153.05 71.92 152.22 L 71.92 133.69 C 71.92 132.86 72.59 132.19 73.42 132.19 L 89.70 132.19 C 90.53 132.19 91.20 132.86 91.20 133.69 L 91.20 152.22 C 91.20 153.05 90.53 153.72 89.70 153.72 Z M 74.92 150.72 L 88.20 150.72 L 88.20 135.19 L 74.92 135.19 L 74.92 150.72 Z" fill="#ccccde" fill-rule="nonzero" group-id="1,7,40,88" node-id="622" stroke="none" target-height="21.535004" target-width="19.277" target-x="71.922" target-y="132.19"></path><path d="M 89.70 144.46 L 73.42 144.46 C 72.59 144.46 71.92 143.78 71.92 142.96 C 71.92 142.13 72.59 141.46 73.42 141.46 L 89.70 141.46 C 90.53 141.46 91.20 142.13 91.20 142.96 C 91.20 143.78 90.53 144.46 89.70 144.46 Z" fill="#ccccde" fill-rule="nonzero" group-id="1,7,40" node-id="625" stroke="none" target-height="3" target-width="19.277" target-x="71.922" target-y="141.457"></path><path d="M 45.66 133.69 L 61.94 133.69 L 61.94 152.22 L 45.66 152.22 Z" fill="#d4eaff" fill-rule="nonzero" group-id="1,7,41,89" node-id="632" stroke="none" target-height="18.535004" target-width="16.273998" target-x="45.664" target-y="133.689"></path><path d="M 61.94 153.72 L 45.66 153.72 C 44.84 153.72 44.16 153.05 44.16 152.22 L 44.16 133.69 C 44.16 132.86 44.84 132.19 45.66 132.19 L 61.94 132.19 C 62.77 132.19 63.44 132.86 63.44 133.69 L 63.44 152.22 C 63.44 153.05 62.77 153.72 61.94 153.72 Z M 47.16 150.72 L 60.44 150.72 L 60.44 135.19 L 47.16 135.19 L 47.16 150.72 Z" fill="#ccccde" fill-rule="nonzero" group-id="1,7,41,89" node-id="634" stroke="none" target-height="21.535004" target-width="19.274998" target-x="44.164" target-y="132.19"></path><path d="M 61.94 144.46 L 45.66 144.46 C 44.84 144.46 44.16 143.78 44.16 142.96 C 44.16 142.13 44.84 141.46 45.66 141.46 L 61.94 141.46 C 62.77 141.46 63.44 142.13 63.44 142.96 C 63.44 143.78 62.77 144.46 61.94 144.46 Z" fill="#ccccde" fill-rule="nonzero" group-id="1,7,41" node-id="637" stroke="none" target-height="3" target-width="19.275997" target-x="44.164" target-y="141.457"></path><path d="M 32.91 188.07 C 32.08 188.07 31.41 187.40 31.41 186.57 L 31.41 166.61 C 31.41 165.78 32.08 165.11 32.91 165.11 C 33.73 165.11 34.41 165.78 34.41 166.61 L 34.41 186.57 C 34.41 187.40 33.73 188.07 32.91 188.07 Z" fill="#ccccde" fill-rule="nonzero" group-id="1,7" node-id="640" stroke="none" target-height="22.960999" target-width="2.999998" target-x="31.406" target-y="165.113"></path><path d="M 58.33 200.40 L 87.86 200.40 L 87.86 204.75 L 58.33 204.75 Z" fill="#f0f0ff" fill-rule="nonzero" group-id="1,7,42" node-id="644" stroke="none" target-height="4.355011" target-width="29.531002" target-x="58.325" target-y="200.4"></path><path d="M 87.86 206.26 L 58.33 206.26 C 57.50 206.26 56.83 205.58 56.83 204.76 L 56.83 200.40 C 56.83 199.57 57.50 198.90 58.33 198.90 L 87.86 198.90 C 88.69 198.90 89.36 199.57 89.36 200.40 L 89.36 204.75 C 89.36 205.58 88.69 206.26 87.86 206.26 Z M 59.83 203.26 L 86.36 203.26 L 86.36 201.90 L 59.83 201.90 L 59.83 203.26 Z" fill="#ccccde" fill-rule="nonzero" group-id="1,7,42" node-id="646" stroke="none" target-height="7.356003" target-width="32.532" target-x="56.825" target-y="198.9"></path><path d="M 111.88 204.76 C 111.88 204.74 111.88 204.73 111.88 204.71 C 111.88 202.20 110.12 200.16 107.95 200.16 C 106.95 200.16 106.04 200.60 105.34 201.32 C 104.81 198.33 102.53 196.09 99.79 196.09 C 98.55 196.09 97.39 196.56 96.46 197.35 C 95.28 195.47 93.38 194.25 91.23 194.25 C 88.28 194.25 85.79 196.55 85.01 199.68 C 84.72 199.61 84.42 199.57 84.11 199.57 C 81.80 199.57 79.94 201.74 79.94 204.41 C 79.94 204.53 79.94 204.64 79.95 204.76 L 111.88 204.76 L 111.88 204.76 Z" fill="#cce8d6" fill-rule="nonzero" group-id="1,7,43" node-id="651" stroke="none" target-height="10.512009" target-width="31.943" target-x="79.935" target-y="194.245"></path><path d="M 111.88 206.26 L 111.88 206.26 L 79.95 206.26 C 79.18 206.26 78.53 205.67 78.46 204.90 C 78.44 204.74 78.44 204.57 78.44 204.41 C 78.44 200.97 80.90 198.16 83.96 198.07 C 85.23 194.88 88.07 192.75 91.23 192.75 C 93.33 192.75 95.33 193.69 96.81 195.32 C 97.73 194.84 98.75 194.59 99.79 194.59 C 102.53 194.59 104.98 196.35 106.18 198.99 C 106.75 198.78 107.34 198.66 107.95 198.66 C 110.95 198.66 113.38 201.38 113.38 204.71 C 113.38 204.75 113.38 204.79 113.37 204.84 C 113.35 205.21 113.20 205.56 112.94 205.82 C 112.66 206.10 112.27 206.26 111.88 206.26 Z M 81.60 203.26 L 110.08 203.26 C 109.67 202.31 108.87 201.66 107.95 201.66 C 107.25 201.66 106.73 202.04 106.42 202.36 C 106.03 202.76 105.45 202.91 104.91 202.75 C 104.37 202.59 103.97 202.14 103.87 201.59 C 103.45 199.27 101.73 197.59 99.79 197.59 C 98.95 197.59 98.13 197.90 97.43 198.49 C 97.09 198.77 96.66 198.90 96.23 198.83 C 95.80 198.76 95.42 198.51 95.19 198.14 C 94.24 196.62 92.79 195.75 91.23 195.75 C 89.05 195.75 87.10 197.51 86.47 200.04 C 86.37 200.43 86.13 200.77 85.78 200.97 C 85.44 201.18 85.03 201.24 84.64 201.14 C 83.28 200.79 82.03 201.79 81.60 203.26 Z" fill="#ccccde" fill-rule="nonzero" group-id="1,7,43" node-id="653" stroke="none" target-height="13.511002" target-width="34.944" target-x="78.435" target-y="192.746"></path><path d="M 65.34 187.38 C 64.52 187.38 63.84 186.70 63.84 185.88 L 63.84 181.03 C 63.84 180.21 64.52 179.53 65.34 179.53 C 66.17 179.53 66.84 180.21 66.84 181.03 L 66.84 185.88 C 66.84 186.70 66.17 187.38 65.34 187.38 Z" fill="#ccccde" fill-rule="nonzero" group-id="1,7" node-id="656" stroke="none" target-height="7.8399963" target-width="3" target-x="63.845" target-y="179.535"></path></g></g><g node-id="793"><g node-id="799"><path d="M 90.00 239.64 L 65.42 239.64 C 64.59 239.64 63.92 238.97 63.92 238.14 C 63.92 237.31 64.59 236.64 65.42 236.64 L 90.00 236.64 C 90.83 236.64 91.50 237.31 91.50 238.14 C 91.50 238.97 90.83 239.64 90.00 239.64 Z" fill="#d8d8f5" fill-opacity="0.45" fill-rule="nonzero" group-id="2,8" node-id="663" stroke="none" target-height="3" target-width="27.582996" target-x="63.922" target-y="236.639"></path></g><g node-id="800"><path d="M 58.49 239.64 L 50.49 239.64 C 49.66 239.64 48.99 238.97 48.99 238.14 C 48.99 237.31 49.66 236.64 50.49 236.64 L 58.49 236.64 C 59.32 236.64 59.99 237.31 59.99 238.14 C 59.99 238.97 59.32 239.64 58.49 239.64 Z" fill="#d8d8f5" fill-opacity="0.45" fill-rule="nonzero" group-id="2,9" node-id="668" stroke="none" target-height="3" target-width="11" target-x="48.99" target-y="236.639"></path></g><g node-id="801"><path d="M 190.49 239.64 L 162.99 239.64 C 162.16 239.64 161.49 238.97 161.49 238.14 C 161.49 237.31 162.16 236.64 162.99 236.64 L 190.49 236.64 C 191.32 236.64 191.99 237.31 191.99 238.14 C 191.99 238.97 191.32 239.64 190.49 239.64 Z" fill="#d8d8f5" fill-opacity="0.45" fill-rule="nonzero" group-id="2,10" node-id="673" stroke="none" target-height="3" target-width="30.5" target-x="161.49" target-y="236.639"></path></g><g node-id="802"><path d="M 208.49 239.64 L 197.99 239.64 C 197.16 239.64 196.49 238.97 196.49 238.14 C 196.49 237.31 197.16 236.64 197.99 236.64 L 208.49 236.64 C 209.32 236.64 209.99 237.31 209.99 238.14 C 209.99 238.97 209.32 239.64 208.49 239.64 Z" fill="#d8d8f5" fill-opacity="0.45" fill-rule="nonzero" group-id="2,11" node-id="678" stroke="none" target-height="3" target-width="13.5" target-x="196.49" target-y="236.639"></path></g><g node-id="803"><path d="M 173.86 224.47 C 173.86 232.27 167.47 238.66 159.66 238.66 L 96.73 238.66 C 88.92 238.66 82.53 232.27 82.53 224.47 L 82.53 87.47 C 82.53 79.66 88.92 73.27 96.73 73.27 L 159.66 73.27 C 167.47 73.27 173.86 79.66 173.86 87.47 L 173.86 224.47 L 173.86 224.47 L 173.86 224.47 Z" fill="#f0f0ff" fill-rule="nonzero" group-id="2,12" node-id="683" stroke="none" target-height="165.395" target-width="91.324005" target-x="82.534" target-y="73.269"></path><path d="M 173.86 224.47 C 173.86 232.27 167.47 238.66 159.66 238.66 L 96.73 238.66 C 88.92 238.66 82.53 232.27 82.53 224.47 L 82.53 87.47 C 82.53 79.66 88.92 73.27 96.73 73.27 L 159.66 73.27 C 167.47 73.27 173.86 79.66 173.86 87.47 L 173.86 224.47 L 173.86 224.47 L 173.86 224.47 Z" fill="#ffffff" fill-rule="nonzero" group-id="2,12" node-id="685" stroke="none" target-height="165.395" target-width="91.324005" target-x="82.534" target-y="73.269"></path><path d="M 82.53 91.35 L 173.86 91.35 L 173.86 219.20 L 82.53 219.20 Z" fill="#bddcff" fill-rule="nonzero" group-id="2,12" node-id="687" stroke="none" target-height="127.854004" target-width="91.325005" target-x="82.533" target-y="91.349"></path><g node-id="835"><path d="M 86.76 219.20 L 173.86 132.10 L 173.86 161.44 L 116.09 219.20 Z" fill="#deefff" fill-opacity="0.49" fill-rule="nonzero" group-id="2,12,44" node-id="691" stroke="none" target-height="87.099" target-width="87.09799" target-x="86.761" target-y="132.104"></path></g><g node-id="836"><path d="M 173.86 161.44 L 116.09 219.20 L 173.86 219.20 Z" fill="#ffffff" fill-opacity="0.4" fill-rule="nonzero" group-id="2,12,45" node-id="696" stroke="none" target-height="57.764008" target-width="57.76499" target-x="116.094" target-y="161.439"></path></g><path d="M 159.66 240.16 L 96.73 240.16 C 85.58 240.16 81.03 235.62 81.03 224.47 L 81.03 87.47 C 81.03 76.32 85.58 71.77 96.73 71.77 L 159.66 71.77 C 170.81 71.77 175.36 76.32 175.36 87.47 L 175.36 224.47 C 175.36 235.62 170.81 240.16 159.66 240.16 Z M 96.73 74.77 C 87.24 74.77 84.03 77.97 84.03 87.47 L 84.03 224.47 C 84.03 233.96 87.24 237.16 96.73 237.16 L 159.66 237.16 C 169.15 237.16 172.36 233.96 172.36 224.47 L 172.36 87.47 C 172.36 77.97 169.15 74.77 159.66 74.77 L 96.73 74.77 Z" fill="#6e6e96" fill-rule="nonzero" group-id="2,12" node-id="699" stroke="none" target-height="168.395" target-width="94.324005" target-x="81.034" target-y="71.769"></path><path d="M 82.53 88.73 L 173.86 88.73 L 173.86 91.73 L 82.53 91.73 Z" fill="#6e6e96" fill-rule="nonzero" group-id="2,12" node-id="701" stroke="none" target-height="3" target-width="91.325005" target-x="82.533" target-y="88.728"></path><path d="M 82.53 217.70 L 173.86 217.70 L 173.86 220.70 L 82.53 220.70 Z" fill="#6e6e96" fill-rule="nonzero" group-id="2,12" node-id="703" stroke="none" target-height="3" target-width="91.325005" target-x="82.533" target-y="217.703"></path><path d="M 134.36 83.41 L 122.03 83.41 C 121.20 83.41 120.53 82.74 120.53 81.91 C 120.53 81.08 121.20 80.41 122.03 80.41 L 134.36 80.41 C 135.19 80.41 135.86 81.08 135.86 81.91 C 135.86 82.74 135.19 83.41 134.36 83.41 Z" fill="#6e6e96" fill-rule="nonzero" group-id="2,12" node-id="705" stroke="none" target-height="3" target-width="15.332001" target-x="120.53" target-y="80.408"></path><path d="M 128.20 235.51 C 124.67 235.51 121.80 232.64 121.80 229.11 C 121.80 225.59 124.67 222.71 128.20 222.71 C 131.72 222.71 134.60 225.59 134.60 229.11 C 134.60 232.64 131.72 235.51 128.20 235.51 Z M 128.20 225.71 C 126.32 225.71 124.80 227.24 124.80 229.11 C 124.80 230.99 126.32 232.51 128.20 232.51 C 130.07 232.51 131.60 230.99 131.60 229.11 C 131.60 227.24 130.07 225.71 128.20 225.71 Z" fill="#6e6e96" fill-rule="nonzero" group-id="2,12" node-id="707" stroke="none" target-height="12.80101" target-width="12.8010025" target-x="121.796" target-y="222.713"></path><path d="M 165.82 81.91 C 165.82 82.95 164.97 83.80 163.92 83.80 C 162.87 83.80 162.02 82.95 162.02 81.91 C 162.02 80.86 162.87 80.01 163.92 80.01 C 164.97 80.01 165.82 80.86 165.82 81.91 Z" fill="#6e6e96" fill-rule="nonzero" group-id="2,12" node-id="709" stroke="none" target-height="3.7939987" target-width="3.793991" target-x="162.024" target-y="80.01"></path><path d="M 158.86 81.91 C 158.86 82.95 158.01 83.80 156.96 83.80 C 155.92 83.80 155.07 82.95 155.07 81.91 C 155.07 80.86 155.92 80.01 156.96 80.01 C 158.01 80.01 158.86 80.86 158.86 81.91 Z" fill="#6e6e96" fill-rule="nonzero" group-id="2,12" node-id="711" stroke="none" target-height="3.7939987" target-width="3.793991" target-x="155.067" target-y="80.01"></path><path d="M 173.86 90.23 L 82.53 90.23 L 82.53 219.20 L 86.76 219.20 L 86.76 94.56 L 173.86 94.56 Z" fill="#6e6e96" fill-opacity="0.15" fill-rule="nonzero" group-id="2,12,46" node-id="715" stroke="none" target-height="128.975" target-width="91.326" target-x="82.533" target-y="90.228"></path><path d="M 82.53 86.52 L 173.86 86.52 L 173.86 90.23 L 82.53 90.23 Z" fill="#6e6e96" fill-opacity="0.15" fill-rule="nonzero" group-id="2,12,47" node-id="720" stroke="none" target-height="3.7109985" target-width="91.325005" target-x="82.533" target-y="86.517"></path><path d="M 160.29 235.50 L 97.36 235.50 C 89.55 235.50 83.17 231.64 83.17 221.30 L 83.17 224.78 C 83.17 237.65 89.55 238.98 97.36 238.98 L 160.29 238.98 C 168.10 238.98 174.49 235.12 174.49 224.78 L 174.49 224.78 L 174.49 221.30 L 174.49 221.30 C 174.49 229.11 168.10 235.50 160.29 235.50 Z" fill="#6e6e96" fill-opacity="0.15" fill-rule="nonzero" group-id="2,12,48" node-id="725" stroke="none" target-height="17.677002" target-width="91.325005" target-x="83.165" target-y="221.303"></path></g></g><g node-id="794"><g node-id="804"><g node-id="840"><path d="M 181.70 200.35 C 197.83 200.35 210.90 187.51 210.90 171.68 C 210.90 155.84 197.83 143.00 181.70 143.00 C 165.58 143.00 152.50 155.84 152.50 171.68 L 153.02 177.07 C 156.84 193.22 146.43 200.35 146.43 200.35 L 181.70 200.35" fill="#ffef9c" fill-rule="nonzero" group-id="3,13,49" node-id="735" stroke="none" target-height="57.358" target-width="64.472" target-x="146.43" target-y="142.996"></path><path d="M 181.70 201.85 C 181.68 201.85 181.65 201.85 181.63 201.85 L 146.43 201.85 C 145.77 201.85 145.19 201.42 145.00 200.79 C 144.80 200.17 145.04 199.49 145.58 199.11 C 145.97 198.84 155.08 192.30 151.56 177.42 C 151.54 177.35 151.53 177.28 151.53 177.22 L 151.01 171.82 C 151.00 171.77 151.00 171.72 151.00 171.68 C 151.00 155.03 164.78 141.50 181.70 141.50 C 198.63 141.50 212.40 155.03 212.40 171.68 C 212.40 188.32 198.63 201.85 181.70 201.85 Z M 150.17 198.85 L 181.70 198.85 C 181.73 198.85 181.75 198.85 181.78 198.85 C 197.02 198.81 209.40 186.64 209.40 171.68 C 209.40 156.69 196.98 144.50 181.70 144.50 C 166.45 144.50 154.04 156.65 154.00 171.60 L 154.50 176.83 C 157.15 188.16 153.20 195.29 150.17 198.85 Z" fill="#6e6e96" fill-rule="nonzero" group-id="3,13,49" node-id="737" stroke="none" target-height="60.358" target-width="67.599" target-x="144.803" target-y="141.496"></path></g><g node-id="841"><path d="M 197.62 175.83 C 194.25 182.27 188.53 186.50 182.05 186.50 C 175.65 186.50 169.99 182.36 166.60 176.05 L 197.62 175.83 Z" fill="#fff4df" fill-rule="nonzero" group-id="3,13,50" node-id="742" stroke="none" target-height="10.664993" target-width="31.023987" target-x="166.598" target-y="175.834"></path><path d="M 182.05 188.00 C 175.32 188.00 169.05 183.80 165.28 176.76 C 165.03 176.30 165.04 175.74 165.31 175.29 C 165.58 174.83 166.06 174.56 166.59 174.55 L 197.61 174.33 C 197.62 174.33 197.62 174.33 197.62 174.33 C 198.14 174.33 198.63 174.61 198.90 175.05 C 199.18 175.50 199.19 176.06 198.95 176.53 C 195.19 183.71 188.87 188.00 182.05 188.00 Z M 169.26 177.53 C 172.52 182.25 177.16 185.00 182.05 185.00 C 187.02 185.00 191.71 182.18 194.97 177.35 L 169.26 177.53 Z" fill="#6e6e96" fill-rule="nonzero" group-id="3,13,50" node-id="744" stroke="none" target-height="13.664993" target-width="34.167007" target-x="165.028" target-y="174.334"></path></g><g node-id="842"><path d="M 172.95 160.79 L 177.28 160.79 L 177.28 167.14 L 172.95 167.14 Z" fill="#6e6e96" fill-rule="nonzero" group-id="3,13,51" node-id="749" stroke="none" target-height="6.3549957" target-width="4.3339996" target-x="172.951" target-y="160.787"></path></g><g node-id="843"><path d="M 187.40 160.79 L 191.73 160.79 L 191.73 167.14 L 187.40 167.14 Z" fill="#6e6e96" fill-rule="nonzero" group-id="3,13,52" node-id="754" stroke="none" target-height="6.3549957" target-width="4.3320007" target-x="187.398" target-y="160.787"></path></g><path d="M 183.08 142.16 C 174.40 142.16 166.60 145.88 161.25 151.80 C 166.56 146.84 173.83 143.76 181.41 143.76 C 196.27 143.76 208.32 155.60 208.32 170.20 C 208.32 184.80 196.27 196.63 181.41 196.63 L 150.72 196.63 C 149.17 198.58 147.81 199.51 147.81 199.51 L 183.08 199.51 C 199.21 199.51 212.28 186.68 212.28 170.84 C 212.28 154.99 199.21 142.16 183.08 142.16 Z" fill="#6e6e96" fill-opacity="0.15" fill-rule="nonzero" group-id="3,13,53" node-id="759" stroke="none" target-height="57.358994" target-width="64.475006" target-x="147.81" target-y="142.156"></path></g><g node-id="805"><g node-id="845"><path d="M 100.21 161.91 L 100.21 140.44 L 100.21 109.05 C 100.21 105.26 97.11 102.16 93.32 102.16 L 52.30 102.16 C 48.51 102.16 45.41 105.26 45.41 109.05 L 45.41 140.44 C 45.41 144.22 48.51 147.32 52.30 147.32 L 78.45 147.32 L 100.21 161.91 Z" fill="#ffffff" fill-rule="nonzero" group-id="3,14,54" node-id="767" stroke="none" target-height="59.752" target-width="54.794003" target-x="45.413" target-y="102.162"></path><path d="M 100.21 163.41 C 99.92 163.41 99.62 163.33 99.37 163.16 L 78.00 148.82 L 52.30 148.82 C 47.67 148.82 43.91 145.06 43.91 140.44 L 43.91 109.05 C 43.91 104.42 47.67 100.66 52.30 100.66 L 93.32 100.66 C 97.95 100.66 101.71 104.42 101.71 109.05 L 101.71 161.91 C 101.71 162.47 101.40 162.97 100.91 163.24 C 100.69 163.35 100.45 163.41 100.21 163.41 Z M 52.30 103.66 C 49.33 103.66 46.91 106.08 46.91 109.05 L 46.91 140.44 C 46.91 143.41 49.33 145.82 52.30 145.82 L 78.45 145.82 C 78.75 145.82 79.04 145.91 79.29 146.08 L 98.71 159.10 L 98.71 109.05 C 98.71 106.08 96.29 103.66 93.32 103.66 L 52.30 103.66 Z" fill="#6e6e96" fill-rule="nonzero" group-id="3,14,54" node-id="769" stroke="none" target-height="62.752" target-width="57.794003" target-x="43.913" target-y="100.662"></path></g><path d="M 45.69 109.88 L 45.69 141.26 C 45.69 145.05 48.79 148.15 52.57 148.15 L 78.73 148.15 L 100.48 162.74 L 100.48 109.88 C 100.48 106.09 97.38 102.99 93.60 102.99 L 52.57 102.99 C 48.78 102.99 45.69 106.09 45.69 109.88 Z M 49.27 135.82 L 49.27 109.34 C 49.27 106.15 52.15 103.54 55.67 103.54 L 93.81 103.54 C 97.33 103.54 100.21 106.15 100.21 109.34 L 100.21 153.93 L 79.99 141.62 L 55.67 141.62 C 52.15 141.62 49.27 139.01 49.27 135.82 L 49.27 135.82 Z" fill="#6e6e96" fill-opacity="0.15" fill-rule="nonzero" group-id="3,14,55" node-id="774" stroke="none" target-height="59.753" target-width="54.794003" target-x="45.688" target-y="102.99"></path></g><g node-id="806"><path d="M 80.49 115.12 L 58.99 115.12 C 58.16 115.12 57.49 114.45 57.49 113.62 C 57.49 112.79 58.16 112.12 58.99 112.12 L 80.49 112.12 C 81.32 112.12 81.99 112.79 81.99 113.62 C 81.99 114.45 81.32 115.12 80.49 115.12 Z" fill="#6e6e96" fill-opacity="0.29" fill-rule="nonzero" group-id="3,15" node-id="780" stroke="none" target-height="3" target-width="24.499996" target-x="57.49" target-y="112.123"></path></g><g node-id="807"><path d="M 69.99 121.62 L 58.99 121.62 C 58.16 121.62 57.49 120.95 57.49 120.12 C 57.49 119.29 58.16 118.62 58.99 118.62 L 69.99 118.62 C 70.82 118.62 71.49 119.29 71.49 120.12 C 71.49 120.95 70.82 121.62 69.99 121.62 Z" fill="#6e6e96" fill-opacity="0.29" fill-rule="nonzero" group-id="3,16" node-id="785" stroke="none" target-height="3" target-width="13.999996" target-x="57.49" target-y="118.623"></path></g><path d="M 77.24 128.62 L 58.99 128.62 C 58.16 128.62 57.49 127.95 57.49 127.12 C 57.49 126.30 58.16 125.62 58.99 125.62 L 77.24 125.62 C 78.07 125.62 78.74 126.30 78.74 127.12 C 78.74 127.95 78.07 128.62 77.24 128.62 Z" fill="#6e6e96" fill-opacity="0.29" fill-rule="nonzero" group-id="3,17" node-id="790" stroke="none" target-height="3" target-width="21.249996" target-x="57.49" target-y="125.623"></path></g></svg>