<?xml version="1.0" standalone="no"?><!DOCTYPE svg PUBLIC "-//W3C//DTD SVG 1.1//EN" "http://www.w3.org/Graphics/SVG/1.1/DTD/svg11.dtd"><svg t="1713075719932" class="icon" viewBox="0 0 1024 1024" version="1.1" xmlns="http://www.w3.org/2000/svg" p-id="6289" xmlns:xlink="http://www.w3.org/1999/xlink" width="200" height="200"><path d="M96 279.466667a87.466667 85.333333 90 1 0 170.666667 0 87.466667 85.333333 90 1 0-170.666667 0Z" fill="#41A5EE" p-id="6290"></path><path d="M403.2 699.733333c-10.666667-14.933333-85.333333-27.733333-145.066667-34.133333v-149.333333c0-46.933333-38.4-87.466667-85.333333-87.466667S85.333333 469.333333 85.333333 516.266667v172.8c0 44.8 32 81.066667 74.666667 85.333333 0 0 91.733333 6.4 172.8 6.4l10.666667 147.2c0 17.066667 14.933333 32 32 32s32-14.933333 32-32v-151.466667c0-21.333333 10.666667-53.333333-4.266667-76.8z" fill="#41A5EE" p-id="6291"></path><path d="M757.333333 279.466667a87.466667 85.333333 90 1 0 170.666667 0 87.466667 85.333333 90 1 0-170.666667 0Z" fill="#41A5EE" p-id="6292"></path><path d="M620.8 699.733333c10.666667-14.933333 85.333333-27.733333 145.066667-34.133333v-149.333333c0-46.933333 38.4-87.466667 85.333333-87.466667s85.333333 38.4 85.333333 87.466667v172.8c0 44.8-32 81.066667-74.666666 85.333333 0 0-91.733333 6.4-172.8 6.4l-10.666667 147.2c0 17.066667-14.933333 32-32 32s-32-14.933333-32-32v-151.466667c2.133333-21.333333-8.533333-53.333333 6.4-76.8z" fill="#41A5EE" p-id="6293"></path><path d="M426.666667 194.133333a87.466667 85.333333 90 1 0 170.666666 0 87.466667 85.333333 90 1 0-170.666666 0Z" fill="#185ABD" p-id="6294"></path><path d="M663.466667 539.733333v-42.666666c0-83.2-68.266667-151.466667-151.466667-151.466667s-151.466667 68.266667-151.466667 151.466667v53.333333H661.333333c0-4.266667 2.133333-8.533333 2.133334-10.666667z" fill="#185ABD" p-id="6295"></path><path d="M693.333333 614.4h-362.666666c-17.066667 0-32-14.933333-32-32s14.933333-32 32-32h362.666666c17.066667 0 32 14.933333 32 32s-14.933333 32-32 32z" fill="#50D9FF" p-id="6296"></path></svg>