<?xml version="1.0" standalone="no"?>
<!DOCTYPE svg PUBLIC "-//W3C//DTD SVG 1.1//EN" "http://www.w3.org/Graphics/SVG/1.1/DTD/svg11.dtd"><svg t="1716055710974"
    class="icon" viewBox="0 0 1024 1024" version="1.1" xmlns="http://www.w3.org/2000/svg" p-id="44422"
    xmlns:xlink="http://www.w3.org/1999/xlink" width="200" height="200">
    <path
        d="M512 1024a512 512 0 0 1-512-512 512 512 0 0 1 512-512 512 512 0 0 1 512 512 512 512 0 0 1-512 512z m0-157.582222a315.050667 315.050667 0 0 0 315.050667-315.050667H196.949333A315.050667 315.050667 0 0 0 512 866.474667zM354.417778 393.898667a78.791111 78.791111 0 1 0 0-157.582223 78.791111 78.791111 0 0 0 0 157.582223z m315.164444 0a78.791111 78.791111 0 1 0 0-157.582223 78.791111 78.791111 0 0 0 0 157.582223z"
        fill="#A3A3A3" p-id="44423"></path>
</svg>