<?xml version="1.0" standalone="no"?><!DOCTYPE svg PUBLIC "-//W3C//DTD SVG 1.1//EN" "http://www.w3.org/Graphics/SVG/1.1/DTD/svg11.dtd"><svg t="1713028426126" class="icon" viewBox="0 0 1024 1024" version="1.1" xmlns="http://www.w3.org/2000/svg" p-id="5253" xmlns:xlink="http://www.w3.org/1999/xlink" width="200" height="200"><path d="M832.7 683.9c-1.3 0-2.6-0.2-3.9-0.2-3.2-0.2 4.5 1 1.5 0.1-2.3-0.6-4.5-1.1-6.8-1.8-2.2-0.7-1.4-1.6 1.2 0.6-0.6-0.5-2-1-2.8-1.4-1.1-0.6-2.3-1.3-3.4-2-0.7-0.4-1.3-0.8-1.9-1.3 0.7 0.6 1.4 1.1 2.2 1.7-1.6-0.4-4.1-3.6-5.2-4.8-0.2-0.2-0.4-0.4-0.5-0.6-1.6-1.9-1.4-1.6 0.6 1-0.6-0.4-1.5-2.1-1.8-2.6-1.1-1.7-2.1-3.6-3.1-5.4-2.5-4.5 1.1 3.6 0.2 0.5-0.3-1.2-0.8-2.5-1.2-3.7-0.3-1.3-0.5-2.5-0.9-3.8-0.8-3 0.3 4.6 0.2 1.5-0.1-1.8-0.2-3.7-0.2-5.5v-0.5-3.1-37-133.8-99.6c0-23-1.7-45.9-7.1-68.4-7.7-32.2-22.1-63.4-41.9-90-20.7-27.8-46.1-51.4-76-69.2-30.7-18.2-64.5-29-99.8-33.5-8.3-1.1-16.6-1.7-25-1.9l23 23c2.3-40.3-31.4-75.3-71.6-75.3-40.2 0-73.9 35-71.6 75.3l23-23C367 121.5 279.7 175 237.7 258.4c-19 37.7-27.9 78.6-27.7 120.8 0.1 15 0 29.9 0 44.9v235.4c0 0.5-0.1 1-0.1 1.6-0.3 2.6-0.2 2.1 0.2-1.5 0.2 0.1-0.9 4.2-1 4.6l-0.9 3c-1.3 5 2.5-4.3 0 0.2-1.2 2.2-2.7 6.5-4.8 8 0.5-0.7 1.1-1.5 1.6-2.2-0.7 0.8-1.4 1.6-2.1 2.3-1.1 1.1-3.1 3.8-4.6 4.2 0.7-0.6 1.4-1.1 2.2-1.7-0.8 0.6-1.7 1.2-2.6 1.7-1.3 0.8-2.7 1.5-4.1 2.3-4 2.2 1.3-0.6 1.2-0.5-0.1 0.5-3.9 1.3-4.4 1.5-0.3 0.1-4.5 1.2-4.6 1 1-0.1 2-0.2 3-0.4-1 0.1-2.1 0.2-3.1 0.3-4.9 0.3-9.7 0.8-14.6 1.6-13.4 2.4-26.1 9.6-35.9 18.9-20.1 18.9-28.4 50.5-18.8 76.7 10.3 28.3 34.8 47.4 64.9 50 6.5 0.6 13.2 0.2 19.8 0.2h608c7.6 0 15.3 0.2 22.9 0 19.4-0.5 39-8.8 52.1-23.2 20.6-22.6 25.2-54.1 12.8-81.8-11.4-25.6-37.2-40.9-64.4-42.4-12-0.7-23.5 11.1-23 23 0.6 13 10.1 22.3 23 23 2.7 0.1 4.5 1.6-0.6-0.3 1.2 0.4 2.8 0.5 4 0.8 1.3 0.3 2.6 0.7 3.9 1.1 2.5 0.8 3.6 2.6-0.5-0.4 1.7 1.2 4.1 2 5.9 3.1 0.9 0.6 2.3 1.9 3.3 2.2-2.9-2.3-3.4-2.7-1.6-1.2 0.7 0.6 1.3 1.1 2 1.7 1 0.9 1.9 1.8 2.8 2.8 0.5 0.5 3.1 3.9 0.7 0.7-2.4-3.3 0.2 0.3 0.5 0.9 0.7 1.1 1.4 2.2 2 3.4 0.5 1 1 2.7 1.8 3.5-0.4-1-0.9-2-1.3-3.1 0.3 0.8 0.6 1.7 0.9 2.5 0.8 2.3 0.9 5.7 1.9 7.8-0.2-1.1-0.3-2.3-0.5-3.4 0.1 0.9 0.2 1.8 0.2 2.8 0.1 1.4 0.1 2.8 0.1 4.2 0 1.2-0.5 3-0.3 4.1 0.2-1.1 0.3-2.3 0.5-3.4-0.1 0.9-0.3 1.8-0.5 2.7-0.5 2.2-1.2 4.3-1.9 6.4-1.4 4.6 2.6-4.8 0.2-0.6-0.9 1.5-1.6 3.1-2.6 4.6-0.6 0.9-1.3 1.8-1.8 2.7-1.4 2.6 3.9-4.3 0.8-1.1-1.8 1.9-3.6 3.7-5.6 5.5-3.5 3.2 4.5-2.9 0.5-0.4l-3.3 2.1c-0.8 0.4-1.5 0.9-2.3 1.3-0.8 0.4-1.6 0.8-2.4 1.1 3.5-1.4 4.1-1.7 1.8-0.8-2.6 0.8-5.2 1.5-7.8 2.1-4.8 1.1 5.6-0.2 0.6-0.1-0.1 0-1.3 0.1-1.4 0.1h-644c-1.9 0-3.7-0.1-5.6-0.1-5 0 5.5 1.2 0.6 0.1-1.3-0.3-2.7-0.5-4-0.9-1.1-0.3-2.2-0.6-3.2-1-2.4-0.8-2.6-2.2 1.1 0.6-2-1.5-4.8-2.4-7-3.8-0.4-0.2-0.7-0.5-1.1-0.7-1.9-1.4-1.5-1 1.5 1.3-0.7-1-2.1-1.7-3-2.6-1-0.9-1.9-1.8-2.8-2.8-0.3-0.3-0.6-0.7-0.9-1-1.5-1.8-1.1-1.3 1.1 1.6-0.9-2.3-3-4.4-4.2-6.7-0.3-0.6-2-4.6-0.5-0.8 1.5 3.9-0.1-0.4-0.3-1-0.4-1.3-0.8-2.6-1.1-3.9-0.2-0.9-0.4-1.8-0.6-2.6-0.4-2.5-0.3-1.8 0.2 2.1 0.4-2.3-0.4-5.3-0.3-7.6 0-1 0.4-2.5 0.3-3.5-0.2 1.1-0.3 2.3-0.5 3.4 0.1-0.9 0.3-1.8 0.5-2.7 0.5-2.5 2.1-5.2 2.3-7.7-0.5 4.6-1.5 3.3-0.1 0.7 0.6-1.2 1.3-2.3 2-3.4 0.6-1 1.8-2.2 2.2-3.3-0.7 0.9-1.3 1.7-2 2.6 0.6-0.7 1.1-1.3 1.7-2 1.6-1.8 4.4-3.4 5.7-5.4-0.3 0.4-4.6 3.1-1.5 1.3l3.3-2.1c1.1-0.7 2.3-1.2 3.5-1.8 2.2-1 1.6-0.8-1.8 0.7 0.8-0.3 1.7-0.6 2.5-0.9 2.2-0.7 4.4-1.2 6.6-1.6 4.9-1-5.6 0.2-0.6 0.1 1.5 0 3-0.1 4.5-0.2 9.7-0.8 17.9-2.9 26.7-6.8 13.8-6.2 26.1-17.6 33.1-31 10-19 8.8-38.8 8.8-59.3V464.3v-69.5-15.2c0-5-0.1-10 0.1-14.9 0.2-5.1 0.6-10.1 1.1-15.2 0.1-1.4 0.3-2.7 0.5-4.1 0.6-5-0.9 5.7-0.1 0.7 0.4-2.7 0.8-5.4 1.3-8.1 1.9-10.6 4.6-21 8-31.2 1.5-4.6 3.3-9.2 5.1-13.7 1.8-4.6-2.2 5.1-0.3 0.6 0.4-0.8 0.7-1.6 1.1-2.4l3.9-8.4c4.5-9 9.5-17.8 15.2-26.1 1.5-2.2 3-4.3 4.5-6.5 1.1-1.6 7-8.2 1.9-2.7 3.5-3.9 6.6-8.1 10.1-12 6.7-7.5 13.9-14.5 21.5-21 2-1.7 4-3.4 6-5 1.2-1 5.1-3.5-0.5 0.4 0.9-0.6 1.7-1.3 2.6-2 4.4-3.3 8.9-6.4 13.5-9.3 8.5-5.5 17.4-10.3 26.6-14.6 2.4-1.1 4.9-2.1 7.3-3.3-6.8 3.3 0.4-0.1 1.9-0.7 5.2-2 10.5-3.8 15.8-5.5 9.7-3 19.7-5.3 29.7-6.9 1.4-0.2 2.7-0.4 4.1-0.6 5-0.8-5.7 0.7-0.7 0.1 2.3-0.3 4.6-0.5 6.9-0.7 5.6-0.5 11.2-0.8 16.8-0.9 11.9-0.3 23.7-10.3 23-23-0.2-3 0.2-6 0.2-9 0.1 5.6-0.3 2.5 0.2 0.3 0.3-1.4 0.8-2.8 1.2-4.2 1.1-4.2-2.4 4.2-0.1 0.1 0.6-1.1 1.1-2.2 1.7-3.2 0.7-1.3 1.6-2.5 2.4-3.7 1.4-2.3-3.3 3.5-0.4 0.6 1-1.1 2-2.2 3.1-3.2 1.6-1.5 4.4-2.7-0.1-0.3 1.1-0.6 8-4.2 8.1-4.9-0.8 0.3-1.7 0.7-2.5 1 1-0.4 2-0.8 3.1-1.1 1.3-0.4 2.6-0.8 3.9-1.1 0.8-0.2 1.6-0.4 2.4-0.5-3.2 0.4-3.9 0.5-2.1 0.3 1.6-0.1 3.2-0.2 4.8-0.2 1.3 0 2.7 0.1 4 0.2 5 0.1-4.3-1.1 0.2 0.1 1.6 0.4 3.1 0.8 4.7 1.3 0.8 0.2 1.5 0.5 2.3 0.8 1.6 0.6 1 0.4-1.7-0.7 0.7-0.2 8 4 8.1 4.9-0.1-0.7-4-3.4-0.6-0.2 1.1 1 2.1 2.1 3.1 3.2 3.3 3.7-0.5-0.6-0.4-0.6 0 0 2.1 3.2 2.4 3.7 0.8 1.3 1.4 2.6 2.1 3.9 2.3 4.4-1.5-4.8-0.1-0.1 0.4 1.4 0.9 2.8 1.2 4.2 0.1 0.5 0.2 1 0.3 1.4 0.4 2.5 0.4 1.9-0.1-1.7-0.4 0.5 0.2 3.1 0.3 3.7 0.1 1.8 0 3.5-0.1 5.3-0.7 12.6 11.1 22.7 23 23 8.4 0.2 16.7 1.4 25 1.9-7.6-0.4-0.4 0 1.4 0.3 2 0.3 4 0.7 6.1 1.1 4 0.8 8 1.6 12 2.6 7.8 1.9 15.6 4.3 23.2 7 1.9 0.7 3.8 1.4 5.6 2.1 1.7 0.7 7.8 3.6 1.3 0.4 3.6 1.8 7.3 3.2 10.9 5 7.1 3.5 14 7.3 20.8 11.5 3.3 2.1 6.6 4.3 9.9 6.5 1.4 1 2.9 2 4.3 3 0.9 0.6 1.8 1.3 2.6 2 4.1 3-2.3-1.9-0.5-0.4 12.2 10 23.6 20.6 33.8 32.7 1.3 1.5 2.5 3 3.7 4.5 0.5 0.7 1 1.4 1.6 2.1-0.2-0.2-3.4-4.6-1.2-1.5 2.5 3.3 4.9 6.7 7.2 10.1 4.4 6.5 8.5 13.3 12.2 20.2 1.8 3.3 3.4 6.6 5.1 10 0.9 1.8 1.7 3.6 2.5 5.4 0.4 0.8 0.7 1.6 1.1 2.4 0.9 2.1-2.2-5.4-0.3-0.6 2.9 7.5 5.6 15 7.8 22.7 2.2 7.8 4 15.7 5.4 23.7 0.4 2 0.7 4 1 6.1 0.2 1.5 0.4 4.4-0.3-2.1l0.3 2.7c0.5 4.3 0.9 8.7 1.2 13 0.4 7.1 0.4 14.1 0.4 21.2v270.1c0 2.8-0.1 5.6 0 8.4 1.1 24.9 14.5 48.3 36.3 60.8 10.9 6.2 22.9 9.3 35.4 9.7 12 0.4 23.5-10.9 23-23-1-13.4-10.5-23.2-23.4-23.6z" p-id="5254"></path><path d="M338.5 318.3c-11.3 18.4-20 38.7-25.2 59.6-2.3 9-4.4 18.3-4.4 27.6V611.6c0 12 10.6 23.6 23 23 12.5-0.6 23-10.1 23-23v-87.4-114.6-6-1.3-0.2c0.3 1.8-1 6.4-0.4 3.5 0.3-1.7 0.6-3.5 0.9-5.2 2.1-11 5.2-21.9 9.3-32.4 0.4-0.9 0.7-2.3 1.3-3.2-2.9 4.8-0.2 0.4 0.4-0.8 1.2-2.6 2.4-5.2 3.7-7.7 2.5-5 5.3-10 8.3-14.8 6.3-10.3 2.6-25.8-8.3-31.5-11.4-5.9-24.9-2.7-31.6 8.3zM508.7 216.3c-33.7 2.4-66 11.9-95.3 28.8-10.4 6-15 21.1-8.3 31.5 6.8 10.5 20.3 14.7 31.5 8.3 5.9-3.4 11.9-6.5 18.1-9.3 1-0.5 2.1-0.9 3.1-1.4-0.8 0.3-1.6 0.7-2.3 1 1.4-0.8 3.2-1.3 4.8-1.9 3.5-1.3 7-2.5 10.6-3.6 6.6-2.1 13.4-3.8 20.2-5.1 1.7-0.3 3.5-0.6 5.2-0.9 0.7-0.1 6.6-0.9 3.1-0.5-3.6 0.4 2.4-0.2 3.1-0.3 2.1-0.2 4.1-0.4 6.2-0.5 12-0.9 23.6-10 23-23-0.6-11.8-10.2-24-23-23.1zM401.1 878.6c11.7 35.7 39.7 64 75.9 74.8 37 11 76.7 1.3 105.8-23.4 15.6-13.2 26.7-31.2 33.2-50.5 3.9-11.4-4.4-25.6-16.1-28.3-12.7-2.9-24.2 3.9-28.3 16.1-0.5 1.5-1.1 3-1.7 4.6-1 2.8 2-4.4 0.7-1.7-0.3 0.6-0.6 1.3-0.9 1.9-1.6 3.3-3.3 6.5-5.3 9.6-0.9 1.3-1.7 2.7-2.7 4-2.9 4.1 2.5-2.8-0.1 0.2-2.2 2.6-4.5 5.1-6.9 7.5-1.1 1.1-2.3 2.2-3.5 3.2-1.4 1.2-6.2 4.1-0.7 0.7-2.9 1.8-5.6 3.9-8.6 5.7-2.8 1.6-5.7 3-8.6 4.4-2.7 1.3 4.5-1.7 1.7-0.7-0.7 0.2-1.3 0.5-1.9 0.7-1.7 0.6-3.5 1.2-5.3 1.7-3.4 1-6.8 1.8-10.3 2.4-5.3 0.9 3.8-0.3-0.3 0-1.9 0.1-3.9 0.3-5.8 0.4-3.4 0.1-6.9 0-10.3-0.2-0.3 0-2.4-0.5-2.9-0.3 0 0 5 0.8 2.5 0.3-2.1-0.4-4.2-0.7-6.3-1.2-3.2-0.7-6.4-1.6-9.5-2.7-0.9-0.3-6.1-2.4-2.5-0.9 3.4 1.5-1.9-0.9-2.9-1.5-2.9-1.5-5.7-3.1-8.4-4.8-1.3-0.9-2.7-1.8-4-2.7-3.2-2.2 1.2 0.8 1.4 1.1-0.4-0.8-2-1.6-2.6-2.2-2.8-2.4-5.4-5-7.8-7.7-1.2-1.3-5.1-6.9-1.2-1.2-1-1.5-2.2-3-3.2-4.5-2-3.1-3.9-6.3-5.6-9.6-0.4-0.8-0.8-1.7-1.2-2.5-1.8-3.7 1.4 3.7 0.4 1-0.7-2-1.5-3.9-2.1-5.9-3.7-11.4-16.1-20-28.3-16.1-11.1 3.7-19.8 16.1-15.8 28.3z" p-id="5255"></path></svg>