<?xml version="1.0" standalone="no"?><!DOCTYPE svg PUBLIC "-//W3C//DTD SVG 1.1//EN" "http://www.w3.org/Graphics/SVG/1.1/DTD/svg11.dtd"><svg t="1713075938461" class="icon" viewBox="0 0 1024 1024" version="1.1" xmlns="http://www.w3.org/2000/svg" p-id="10233" xmlns:xlink="http://www.w3.org/1999/xlink" width="200" height="200"><path d="M448 211.2c6.4 19.2 19.2 51.2 32 76.8L492.8 320 512 326.4l51.2 19.2 25.6 12.8 25.6-12.8c25.6-12.8 57.6-25.6 76.8-32l12.8 12.8c-6.4 19.2-19.2 51.2-32 76.8l-12.8 25.6 12.8 25.6L697.6 512l12.8 25.6 25.6 12.8c25.6 6.4 57.6 19.2 76.8 32l0 19.2c-19.2 6.4-51.2 19.2-76.8 32L710.4 640l-12.8 25.6-19.2 51.2-12.8 25.6 12.8 25.6c12.8 25.6 25.6 57.6 32 76.8l-12.8 12.8c-19.2-6.4-51.2-19.2-76.8-32l-25.6-12.8-25.6 12.8-51.2 19.2-25.6 12.8-12.8 25.6C473.6 908.8 460.8 940.8 448 960L435.2 960c-6.4-19.2-19.2-51.2-32-76.8l-12.8-25.6-25.6-12.8-51.2-19.2-25.6-12.8-25.6 12.8c-25.6 12.8-57.6 25.6-76.8 32l-12.8-12.8C179.2 825.6 192 793.6 204.8 768l12.8-25.6-12.8-25.6-19.2-51.2L172.8 640 147.2 627.2C121.6 620.8 89.6 608 64 595.2L64 582.4c19.2-6.4 51.2-19.2 76.8-32l25.6-12.8L179.2 512l19.2-51.2 12.8-25.6L204.8 409.6C192 384 179.2 352 166.4 332.8L179.2 320c19.2 6.4 51.2 19.2 76.8 32l25.6 12.8 25.6-12.8 51.2-19.2L390.4 320l6.4-25.6c6.4-25.6 19.2-57.6 32-76.8L448 217.6M486.4 147.2 390.4 147.2C384 147.2 339.2 268.8 339.2 268.8L288 294.4c0 0-108.8-44.8-121.6-44.8 0 0 0 0 0 0L96 313.6C89.6 320 147.2 435.2 147.2 435.2L121.6 486.4c0 0-121.6 44.8-121.6 51.2L0 640c0 6.4 121.6 51.2 121.6 51.2l19.2 51.2c0 0-51.2 115.2-44.8 121.6l70.4 70.4c0 0 0 0 0 0 12.8 0 121.6-51.2 121.6-51.2l51.2 19.2c0 0 44.8 121.6 51.2 121.6l96 0c6.4 0 51.2-121.6 51.2-121.6l51.2-19.2c0 0 108.8 44.8 121.6 44.8 0 0 0 0 0 0l70.4-70.4c6.4-6.4-51.2-121.6-51.2-121.6l19.2-51.2c0 0 121.6-44.8 121.6-51.2L870.4 537.6c0-6.4-121.6-51.2-121.6-51.2l-19.2-51.2c0 0 51.2-121.6 44.8-121.6l-70.4-70.4c0 0 0 0 0 0-12.8 0-121.6 51.2-121.6 51.2L537.6 268.8C537.6 268.8 492.8 147.2 486.4 147.2L486.4 147.2z" p-id="10234" fill="#1296db"></path><path d="M876.8 70.4c38.4 0 64 25.6 64 64s-25.6 64-64 64-64-25.6-64-64S844.8 70.4 876.8 70.4M876.8 6.4c-70.4 0-128 57.6-128 128s57.6 128 128 128c70.4 0 128-57.6 128-128S947.2 6.4 876.8 6.4L876.8 6.4z" p-id="10235" fill="#1296db"></path></svg>